<svg xmlns="http://www.w3.org/2000/svg" viewBox="0 0 304 170"><defs><linearGradient id="a" x1="113.702" y1="84.599" x2="150.97" y2="60.398" gradientUnits="userSpaceOnUse"><stop offset=".248" stop-color="#c4ced4"/><stop offset=".37" stop-color="#bec9cf"/><stop offset=".518" stop-color="#b0bbc4"/><stop offset=".679" stop-color="#97a4b1"/><stop offset=".849" stop-color="#758496"/><stop offset="1" stop-color="#51627a"/></linearGradient></defs><path d="M185.786 60.834c0-.703-.013-1.397-.04-2.083h8.265l2.193-6.36h-11.13c-3.054-17.398-15.837-27.962-35.144-27.962-21.712 0-35.747 14.474-35.747 36.844 0 22.588 13.597 36.514 35.747 36.405 18.053 0 30.865-9.938 34.674-26.207h7.542l2.303-6.36h-8.843c.118-1.391.18-2.816.18-4.277ZM150.368 87.59c-11.184 0-15.57-11.843-15.57-26.537s3.508-26.426 14.803-26.536c8.885 0 13.476 7.408 14.99 17.874h-9.617l-2.193 6.36h12.351c.025.759.04 1.525.04 2.302 0 1.382-.031 2.736-.096 4.057H153.22l-2.302 6.36h13.526c-1.52 9.531-5.611 16.12-14.074 16.12Z" style="fill:#c4ced4"/><path d="M150.369 87.59c-11.185 0-15.571-11.843-15.571-26.537 0-7.09.82-13.485 2.935-18.223l-8.65-12.645c-9.416 6.207-14.9 17.104-14.9 31.088 0 22.588 13.597 36.514 35.747 36.405 8.314 0 15.513-2.113 21.237-5.976l-8.746-12.784c-2.246 5.339-6.042 8.672-12.052 8.672Z" style="fill:url(#a)"/><path d="M35.999 121.11h-2.837l-9.279 17.974-.094.182h3.119l2.178-4.407h10.836l2.178 4.407h3.194l-9.26-18.088-.035-.067Zm-1.93 3.945c.116-.248.226-.482.323-.734.047-.117.088-.233.127-.347.03.098.064.197.098.298.063.152.133.305.203.458.069.151.139.302.205.462l3.683 7.34h-8.432l3.683-7.243.11-.234Zm32.126 8.473 2.949.611-.084.15c-.642 1.14-1.37 2.434-3.209 3.59-2.5 1.581-5.62 1.817-7.258 1.817-6.779 0-10.99-3.687-10.99-9.622 0-3.14 1.102-5.491 3.367-7.191.703-.561 2.849-2.279 7.546-2.279 1.25 0 4.423.165 6.879 1.69 1.925 1.206 2.824 2.721 3.307 3.536l.088.148-.167.04-2.825.628-.045-.08c-.41-.717-.827-1.447-1.91-2.161-.982-.64-2.87-1.322-5.225-1.322-7.498 0-8.08 5.293-8.08 6.915 0 1.952.628 3.684 1.816 5.007.999 1.019 2.927 2.238 6.416 2.238 2.36.034 4.355-.517 5.62-1.518a5.915 5.915 0 0 0 1.763-2.109l.042-.088Zm4.61-12.392h17.396v2.377h-7.319v15.752H78.1v-15.752h-7.293v-2.377Zm21.577 0h2.858v18.13h-2.858v-18.13Zm23.47 0h3.063l-8.551 18.13h-2.716l-.034-.071-8.67-18.059h3.087l.035.072 6.23 13.22c.384.79.519 1.119.726 1.782.126-.541.241-.812.567-1.504l6.263-13.57Zm9.55 15.676h14.612v2.453h-17.396v-18.129h16.763v2.453H125.4v5.094h13.6v2.352h-13.6v5.777Zm19.527-15.676h17.648v1.744h-7.673v16.385h-1.947V122.88h-8.028v-1.744Zm38.467 8.91c1.463-1.153 1.77-2.756 1.77-3.897 0-1.84-.887-3.492-2.318-4.314-1.27-.699-2.776-.699-3.986-.699h-12.484v18.13h1.972v-7.978h8l7.028 7.936.037.042h2.743l-7.202-7.988c1.237-.05 3.1-.19 4.44-1.232Zm-.354-3.973c0 .892-.31 1.76-.827 2.32-.973 1.045-2.434 1.126-4.391 1.126h-9.474v-6.664h10.563c.977 0 2.084 0 2.965.684.718.533 1.164 1.504 1.164 2.534Zm14.304-4.937-8.91 18.13h2.05l2.28-4.635h11.368l2.27 4.566.034.069h2.13l-9.142-18.13h-2.08Zm5.954 11.827h-9.727l4.814-9.824 4.914 9.824Zm22.973-10.953c-1.642-.808-3.153-.874-4.816-.874h-9.065v18.13h8.229c2.228 0 4.576-.113 6.653-1.464 2.337-1.531 3.678-4.283 3.678-7.55 0-3.73-1.75-6.81-4.68-8.242Zm1.062 3.304c.995 1.28 1.544 3.07 1.544 5.039 0 2.381-.694 4.216-2.061 5.453-1.917 1.716-4.527 1.716-6.83 1.716h-5.573V122.88h7.067c1.196 0 3.997 0 5.853 2.434Zm11.112 12.207h16.107v1.745h-18.105v-18.13h17.37v1.744h-15.372v6.006h14.207v1.744h-14.207v6.891Zm34.638-6.243c1.237-.05 3.1-.19 4.44-1.232 1.463-1.153 1.77-2.756 1.77-3.897 0-1.84-.888-3.492-2.318-4.314-1.27-.699-2.776-.699-3.986-.699h-12.484v18.13h1.972v-7.978h8l7.027 7.936.038.042h2.742l-7.201-7.988Zm4.086-5.205c0 .892-.31 1.76-.827 2.32-.974 1.045-2.435 1.126-4.392 1.126h-9.473v-6.664h10.563c.977 0 2.084 0 2.965.684.718.533 1.164 1.504 1.164 2.534Z" style="fill:#040c17"/><path style="fill:none" d="M0 0h304v170H0z"/></svg>
