<?xml version="1.0" encoding="utf-8"?>
<!-- Generator: Adobe Illustrator 25.1.0, SVG Export Plug-In . SVG Version: 6.00 Build 0)  -->
<svg version="1.1" id="Layer_1" xmlns="http://www.w3.org/2000/svg" xmlns:xlink="http://www.w3.org/1999/xlink" x="0px" y="0px"
	 viewBox="0 0 24 24" style="enable-background:new 0 0 24 24;" xml:space="preserve">
<style type="text/css">
	.st0{fill:url(#SVGID_1_);}
</style>
<linearGradient id="SVGID_1_" gradientUnits="userSpaceOnUse" x1="4.276497e-02" y1="12" x2="23.9572" y2="12" gradientTransform="matrix(1 0 0 -1 0 24)">
	<stop  offset="0" style="stop-color:#0D3D8C"/>
	<stop  offset="1.602422e-02" style="stop-color:#0C3F90"/>
	<stop  offset="0.1095" style="stop-color:#0A4BA5"/>
	<stop  offset="0.2024" style="stop-color:#0852B1"/>
	<stop  offset="0.2933" style="stop-color:#0854B5"/>
	<stop  offset="0.3564" style="stop-color:#095CB8"/>
	<stop  offset="0.6531" style="stop-color:#0D7DC4"/>
	<stop  offset="0.8161" style="stop-color:#0E89C8"/>
</linearGradient>
<path class="st0" d="M10.1,20.6c0.2,0.2,0.2,0.5,0,0.7c0,0-2.4,2.4-2.4,2.4c-0.1,0.1-0.4,0.2-0.5,0.1c-0.2,0-0.3-0.1-0.4-0.3
	c-0.1-0.2,0-0.4,0.1-0.5l1.6-1.6c-0.4,0.1-0.7,0.1-1.1,0.1c-1,0-2-0.2-2.9-0.6c-3.4-1.6-4.9-5.6-3.3-9l0.1-0.1
	c0.1-0.2,0.4-0.3,0.7-0.2c0.2,0.1,0.3,0.4,0.2,0.7c-0.4,0.8-0.5,1.6-0.5,2.4c0,3.2,2.6,5.7,5.7,5.7c0.3,0,0.7,0,1-0.1l-1.7-1.7
	c-0.2-0.2-0.2-0.5,0-0.7s0.5-0.2,0.7,0L10.1,20.6z M12.2,6.1c0,3.3-2.7,6.1-6.1,6.1S0,9.4,0,6.1S2.8,0,6.1,0S12.2,2.7,12.2,6.1z
	 M8.1,7.9H5.2C5.6,7.5,5.7,7,5.7,6.6c0-0.1,0-0.1,0-0.2h1.4V5.6H5.5C5.4,5.3,5.3,5,5.3,4.6c0-0.7,0.3-0.9,0.8-0.9C6.8,3.7,7,4,7,4.5
	h1.1c0-1-0.6-1.8-1.9-1.8c-1.2,0-2,0.7-2,1.8c0,0.4,0.1,0.7,0.2,1H3.7v0.8h0.9c0,0.1,0,0.1,0,0.2c0,0.8-0.3,1.2-0.7,1.7l0.2,0.6h4
	V7.9z M16.5,6c0.2,0.2,0.5,0.2,0.7,0s0.2-0.5,0-0.7l-1.7-1.7c0.3-0.1,0.7-0.1,1-0.1c3.2,0,5.7,2.6,5.7,5.7c0,0.8-0.2,1.7-0.5,2.4
	c-0.1,0.2,0,0.6,0.3,0.7c0,0,0,0,0.1,0c0.3,0,0.4,0,0.5-0.3c1.6-3.4,0.1-7.4-3.2-9c-0.9-0.4-1.9-0.6-2.9-0.6c-0.4,0-0.8,0-1.1,0.1
	L17,1c0.2-0.2,0.2-0.5,0-0.7s-0.5-0.2-0.7,0L14,2.7c-0.2,0.2-0.2,0.5,0,0.7L16.5,6z M17.1,16.6c0,0.4,0.3,0.6,0.7,0.7v-1.4
	C17.3,16,17.1,16.2,17.1,16.6z M18.3,18.4v1.5c0.4-0.1,0.7-0.4,0.7-0.8C19,18.7,18.7,18.5,18.3,18.4z M24,17.9
	c0,3.3-2.7,6.1-6.1,6.1c-3.3,0-6.1-2.7-6.1-6.1s2.7-6.1,6.1-6.1C21.2,11.9,24,14.6,24,17.9z M20.2,19.2c0-1.3-1-1.5-1.9-1.7v-1.6
	c0.3,0.1,0.5,0.4,0.6,0.7h1.3c-0.1-1-0.8-1.6-1.9-1.7v-0.7h-0.5v0.7c-1.1,0.1-1.9,0.7-1.9,1.7c0,1.3,1,1.5,1.9,1.7v1.6
	c-0.4-0.1-0.6-0.3-0.6-0.7h-1.3c0,1,0.8,1.6,1.9,1.7v0.7h0.5v-0.7C19.5,20.8,20.2,20,20.2,19.2z"/>
</svg>
