<svg xmlns="http://www.w3.org/2000/svg" viewBox="0 0 500 500" style="enable-background:new 0 0 500 500" xml:space="preserve"><linearGradient id="a" gradientUnits="userSpaceOnUse" x1="1.744" y1="250" x2="498.256" y2="250"><stop offset="0" style="stop-color:#0d3d8c"/><stop offset=".016" style="stop-color:#0c3f90"/><stop offset=".11" style="stop-color:#0a4ba5"/><stop offset=".202" style="stop-color:#0852b1"/><stop offset=".293" style="stop-color:#0854b5"/><stop offset=".356" style="stop-color:#095cb8"/><stop offset=".653" style="stop-color:#0d7dc4"/><stop offset=".816" style="stop-color:#0e89c8"/></linearGradient><path d="M250 1.744C112.892 1.744 1.744 112.892 1.744 250S112.892 498.256 250 498.256 498.256 387.108 498.256 250C498.105 112.955 387.046 1.895 250 1.744zm0 446.861c-109.686 0-198.605-88.918-198.605-198.605 0-109.686 88.918-198.605 198.605-198.605S448.605 140.314 448.605 250c-.123 109.635-88.97 198.482-198.605 198.605zm55.584-203.52a58.84 58.84 0 0 0 26.812-21.052 53.281 53.281 0 0 0 9.161-30.535 59.159 59.159 0 0 0-21.896-50.073 91.24 91.24 0 0 0-48.137-15.963V97.349h-18.619v29.344h-16.832v-29.22h-18.619v29.22h-46.25v247.114h44.314v29.592h18.619v-29.667h17.055v29.518h18.619v-30.039a91.851 91.851 0 0 0 55.386-18.123 65.738 65.738 0 0 0 22.343-53.474 59.586 59.586 0 0 0-10.948-36.047 54.463 54.463 0 0 0-31.008-20.482zm-91.457-83.836h41.806a52.805 52.805 0 0 1 32.521 8.143 31.604 31.604 0 0 1 10.427 26.464 31.131 31.131 0 0 1-11.296 25.719 48.604 48.604 0 0 1-31.305 9.086h-42.129l-.024-69.412zm79.243 168.168a46.22 46.22 0 0 1-31.578 9.93h-47.665v-77.133h51.24c21.8.049 39.433 17.761 39.385 39.561a39.477 39.477 0 0 1-11.382 27.642z" style="fill:url(#a)"/></svg>
