<svg xmlns="http://www.w3.org/2000/svg" viewBox="0 0 500 500" style="enable-background:new 0 0 500 500" xml:space="preserve"><linearGradient id="a" gradientUnits="userSpaceOnUse" x1="55.24" y1="250" x2="444.761" y2="250"><stop offset="0" style="stop-color:#0d3d8c"/><stop offset=".016" style="stop-color:#0c3f90"/><stop offset=".11" style="stop-color:#0a4ba5"/><stop offset=".202" style="stop-color:#0852b1"/><stop offset=".293" style="stop-color:#0854b5"/><stop offset=".356" style="stop-color:#095cb8"/><stop offset=".653" style="stop-color:#0d7dc4"/><stop offset=".816" style="stop-color:#0e89c8"/></linearGradient><path d="M424.632 421.386v-68.538c0-11.604-9.407-21.011-21.011-21.011s-21.011 9.407-21.011 21.011v84.044a413.406 413.406 0 0 1-135.1 19.624 390.066 390.066 0 0 1-130.12-18.91v-87.363c0-11.604-9.407-21.011-21.011-21.011s-21.011 9.407-21.011 21.011v70.891a20.761 20.761 0 0 0-14.939 8.404c-6.868 9.353-4.854 22.503 4.499 29.371l.06.044c2.227 1.597 55.616 39.585 182.522 39.585 126.36 0 184.308-37.441 186.703-39.017 9.583-6.39 12.235-19.304 5.946-28.953a20.633 20.633 0 0 0-15.527-9.182zm-178.635-84.443c126.402 0 185.82-38.66 188.279-40.299 9.559-6.425 12.165-19.348 5.841-28.974a20.59 20.59 0 0 0-15.485-9.014v-89.107c0-11.604-9.407-21.011-21.011-21.011s-21.011 9.407-21.011 21.011v104.76A406.36 406.36 0 0 1 246.039 294.9a370.262 370.262 0 0 1-128.608-19.351V171.818c0-11.604-9.407-21.011-21.011-21.011s-21.011 9.407-21.011 21.011v86.523c-11.544 1.178-19.947 11.492-18.769 23.036a21.007 21.007 0 0 0 7.864 14.342c2.123 1.681 54.209 41.224 181.493 41.224zm4.014-168.739c93.793 0 194.75-26.075 194.75-83.308S343.804 1.462 250.011 1.462 55.24 27.537 55.24 84.812s100.978 83.392 194.771 83.392zm0-124.636c99.213 0 152.728 29.415 152.728 41.328s-53.515 41.286-152.728 41.286-152.75-29.415-152.75-41.286 53.536-41.412 152.749-41.412v.084h.001zm57.17 62.486c22.797 0 41.265-9.644 41.265-21.578s-18.469-21.578-41.265-21.578-41.265 9.665-41.265 21.578 18.426 21.578 41.265 21.578z" style="fill:url(#a)"/></svg>
