<?xml version="1.0" encoding="utf-8"?>
<!-- Generator: Adobe Illustrator 24.3.0, SVG Export Plug-In . SVG Version: 6.00 Build 0)  -->
<svg version="1.1" id="Layer_1" xmlns="http://www.w3.org/2000/svg" xmlns:xlink="http://www.w3.org/1999/xlink" x="0px" y="0px"
	 viewBox="0 0 2000 2000" style="enable-background:new 0 0 2000 2000;" xml:space="preserve">
<style type="text/css">
	.st0{fill:#FFFFFF;}
	.st1{fill:#606060;}
	.st2{opacity:0.8;}
	.st3{fill:#3F3F3F;}
	.st4{opacity:0.7;}
	.st5{fill:#838383;}
	.st6{opacity:0.3;}
	.st7{opacity:0.06;}
	.st8{fill:#0069A4;}
	.st9{fill:#00E3A4;}
	.st10{opacity:0.5;}
</style>
<g>
	<g>
		<path class="st0" d="M665.76,1045.65c-11.51,0-21.57-2.24-30.2-6.72c-8.63-4.48-15.32-11.2-20.06-20.16
			c-4.75-8.96-7.12-20-7.12-33.11c0-12.04,1.87-23.11,5.62-33.21c3.74-10.1,8.99-18.86,15.75-26.28
			c6.75-7.42,14.61-13.17,23.58-17.26c8.96-4.08,18.73-6.12,29.29-6.12c18.06,0,32.13,5.05,42.24,15.15
			c10.1,10.1,15.15,24.98,15.15,44.64c0,12.04-1.88,23.11-5.62,33.21c-3.75,10.1-9,18.9-15.75,26.39
			c-6.76,7.49-14.62,13.28-23.58,17.36C686.09,1043.61,676.32,1045.65,665.76,1045.65z M668.37,1029.6c5.62,0,11.1-1.5,16.45-4.51
			c5.35-3.01,10.16-7.32,14.45-12.94c4.28-5.62,7.69-12.27,10.23-19.96c2.54-7.69,3.81-16.22,3.81-25.58
			c0-10.97-1.5-19.96-4.51-26.99c-3.01-7.02-7.02-12.24-12.04-15.65c-5.02-3.41-10.6-5.12-16.75-5.12c-8.16,0-15.65,2.64-22.47,7.93
			c-6.82,5.29-12.27,12.68-16.35,22.17c-4.08,9.5-6.12,20.47-6.12,32.91c0,10.83,1.5,19.8,4.51,26.89
			c3.01,7.09,7.05,12.34,12.14,15.75C656.8,1027.89,662.35,1029.6,668.37,1029.6z M720.33,1076.55c-4.55,0-9.4-1.3-14.55-3.91
			c-5.15-2.61-10.27-6.32-15.35-11.14c-5.09-4.82-9.97-10.57-14.65-17.26l17.86-8.03c3.88,3.48,7.39,6.45,10.53,8.93
			c3.14,2.47,6.42,4.45,9.83,5.92c3.41,1.47,7.42,2.54,12.04,3.21c4.62,0.67,10.33,1,17.16,1c1.07,0,1.84,0.27,2.31,0.8
			c0.47,0.53,0.7,1.34,0.7,2.41c0,1.61-0.84,3.44-2.51,5.52c-1.67,2.07-3.85,4.08-6.52,6.02c-2.68,1.94-5.49,3.51-8.43,4.71
			C725.82,1075.95,723.01,1076.55,720.33,1076.55z"/>
		<path class="st0" d="M782.73,1045.45c-11.51,0-20.43-3.38-26.79-10.13c-6.35-6.75-9.53-16.68-9.53-29.8
			c0-8.69,1.44-16.75,4.31-24.18c2.88-7.42,6.79-13.94,11.74-19.56c4.95-5.62,10.67-10,17.16-13.14c6.49-3.14,13.34-4.72,20.57-4.72
			c11.5,0,20.3,3.41,26.38,10.23c6.09,6.82,9.13,17.12,9.13,30.9c0,8.3-1.37,16.09-4.11,23.37c-2.74,7.29-6.52,13.71-11.34,19.26
			c-4.82,5.55-10.43,9.9-16.85,13.04C796.98,1043.87,790.09,1045.45,782.73,1045.45z M787.55,1030.4c5.08,0,9.46-1.87,13.14-5.62
			c3.68-3.74,6.49-8.89,8.43-15.45c1.94-6.55,2.91-13.91,2.91-22.07c0-8.69-1.3-15.58-3.91-20.67c-2.61-5.08-6.92-7.62-12.94-7.62
			c-4.95,0-9.33,1.87-13.14,5.62c-3.81,3.75-6.76,8.86-8.83,15.35c-2.08,6.49-3.11,13.88-3.11,22.17c0,9.23,1.47,16.25,4.41,21.07
			C777.45,1027.99,781.8,1030.4,787.55,1030.4z"/>
		<path class="st0" d="M852.76,1045.25c-1.74,0-3.04-0.3-3.91-0.9c-0.87-0.6-1.34-2.17-1.4-4.71c-0.07-2.54,0.23-6.62,0.9-12.24
			l9.43-83.47h14.05c2.01,0,3.81,1.47,5.42,4.41c1.6,2.94,2.41,6.29,2.41,10.03c0,1.74-0.5,4.45-1.5,8.13
			c-1,3.68-2.18,7.56-3.51,11.64c-1.34,4.08-2.54,7.66-3.61,10.73l-5.22,16.45l7.42-1.2l-3.61,33.51c-0.13,1.34-0.94,2.51-2.41,3.51
			c-1.47,1-3.18,1.81-5.12,2.41c-1.94,0.6-3.78,1.03-5.52,1.3C854.83,1045.11,853.56,1045.25,852.76,1045.25z M869.61,1037.62
			l-4.82-30.3c4.95-12.84,10-23.98,15.15-33.41c5.15-9.43,10.4-16.75,15.75-21.97c5.35-5.22,10.77-7.83,16.25-7.83
			c3.08,0,5.28,0.97,6.62,2.91c1.34,1.94,2.01,4.38,2.01,7.32c0,2.68-0.3,5.25-0.9,7.73c-0.6,2.48-1.47,4.51-2.61,6.12
			c-1.14,1.61-2.51,2.41-4.11,2.41c-1.47,0-3.11-0.47-4.92-1.4c-1.81-0.93-4.25-1.4-7.32-1.4c-2.01,0-4.55,2.08-7.62,6.22
			c-3.08,4.15-6.25,9.67-9.53,16.55c-3.28,6.89-6.19,14.45-8.73,22.67C872.29,1021.47,870.55,1029.6,869.61,1037.62z"/>
		<path class="st0" d="M954.28,1045.65c-5.62,0-10.13-2.11-13.54-6.32c-3.41-4.21-5.52-10.33-6.32-18.36L930,976.02
			c-0.27-3.08-0.7-6.19-1.3-9.33c-0.6-3.14-1.37-5.65-2.31-7.52c-0.94-1.87-1.74-3.18-2.41-3.91c-0.67-0.73-1-1.64-1-2.71
			c0-1.07,0.77-2.11,2.31-3.11c1.54-1,3.44-1.94,5.72-2.81c2.27-0.87,4.55-1.54,6.82-2.01c2.27-0.47,4.14-0.7,5.62-0.7
			c2.41,0,4.35,1.27,5.82,3.81c1.47,2.54,2.61,7.56,3.41,15.05l5.22,50.96c0.4,3.88,1.1,6.82,2.11,8.83c1,2.01,2.44,3.01,4.31,3.01
			c1.47,0,3.51-0.93,6.12-2.81c2.61-1.87,5.28-5.02,8.03-9.43c2.74-4.41,5.05-10.3,6.92-17.66c1.87-7.35,2.81-16.52,2.81-27.49
			c0-3.21-0.44-5.68-1.3-7.42c-0.87-1.74-1.3-3.28-1.3-4.61c0-1.2,0.73-2.54,2.21-4.01c1.47-1.47,3.31-2.81,5.52-4.01
			c2.21-1.2,4.41-2.21,6.62-3.01c2.21-0.8,3.98-1.2,5.32-1.2c1.61,0,3.21,0.47,4.82,1.4c1.61,0.94,2.41,3.28,2.41,7.02
			c0,6.42-0.94,13.74-2.81,21.97c-1.88,8.23-4.51,16.49-7.93,24.78c-3.41,8.3-7.52,15.99-12.34,23.07
			c-4.82,7.09-10.17,12.77-16.05,17.05C967.46,1043.51,961.1,1045.65,954.28,1045.65z"/>
		<path class="st0" d="M1041.16,1045.65c-7.49,0-12.84-3.04-16.05-9.13c-3.21-6.08-4.82-14.61-4.82-25.58
			c0-9.76,1.44-18.73,4.31-26.89c2.87-8.16,6.79-15.21,11.74-21.17c4.95-5.95,10.7-10.57,17.26-13.84
			c6.55-3.28,13.51-4.92,20.87-4.92c5.75,0,11,0.77,15.75,2.31c4.75,1.54,8.79,3.11,12.14,4.72l-5.82,21.07
			c-3.61-2.41-7.66-4.62-12.14-6.62c-4.48-2.01-8.63-3.58-12.44-4.71c-3.81-1.14-6.66-1.71-8.53-1.71c-3.75,0-7.19,1.84-10.33,5.52
			c-3.14,3.68-5.62,8.76-7.42,15.25c-1.81,6.49-2.71,13.94-2.71,22.37c0,7.76,0.57,13.64,1.71,17.66c1.13,4.01,2.97,6.02,5.52,6.02
			c1.74,0,4.68-1.97,8.83-5.92c4.14-3.94,9.16-10.53,15.05-19.76c5.88-9.23,12.1-21.74,18.66-37.52l5.62,17.86
			c-7.22,16.05-14.11,28.83-20.67,38.32c-6.56,9.5-12.84,16.32-18.86,20.47S1046.91,1045.65,1041.16,1045.65z M1089.11,1044.44
			c-2.68,0-4.28-1.3-4.82-3.91c-0.54-2.61-0.8-5.38-0.8-8.33c0-2.27,0.3-5.08,0.9-8.43c0.6-3.34,1.37-6.95,2.31-10.83
			c0.93-3.88,1.94-7.69,3.01-11.44l4.41-15.05l-5.82-5.22l4.82-30.3c4.28-0.67,8.06-1.54,11.34-2.61c3.28-1.07,6.02-2.01,8.23-2.81
			s3.78-1.2,4.72-1.2c1.47,0,2.21,0.8,2.21,2.41c0,0.67-0.84,3.51-2.51,8.53c-1.67,5.02-3.48,11.41-5.42,19.16
			c-1.94,7.76-3.38,16.19-4.31,25.28l-4.21,44.74H1089.11z"/>
		<path class="st0" d="M1187.03,1044.85c-2.14,0-3.55-1-4.21-3.01c-0.67-2.01-1-4.42-1-7.22c0-4.68,0.27-9.66,0.8-14.95
			c0.53-5.28,1.07-10.46,1.61-15.55l11.04-101.13l16.65-0.2c5.48-0.13,9.26,0.24,11.34,1.1c2.07,0.87,3.44,2.64,4.11,5.32
			l29.7,108.55l-10.43-0.4l46.35-100.93c1.74-3.74,4.95-6.92,9.63-9.53c4.68-2.61,10.37-3.91,17.05-3.91c2.67,0,4.72,0.64,6.12,1.91
			c1.4,1.27,1.91,3.71,1.5,7.32l-13.64,131.82h-16.05c-1.74,0-3.08-1.07-4.01-3.21c-0.94-2.14-1.4-5.15-1.4-9.03
			c0-5.48,0.17-11.44,0.5-17.86c0.33-6.42,0.83-12.57,1.5-18.46l7.42-63.4l1.2,0.8l-26.29,56.58c-5.35,11.51-9.7,20.64-13.04,27.39
			c-3.34,6.76-6.05,11.81-8.13,15.15c-2.08,3.34-3.85,5.52-5.32,6.52c-1.47,1-3.01,1.5-4.62,1.5c-1.74,0-3.18-0.37-4.31-1.1
			c-1.14-0.73-2.04-2.31-2.71-4.71l-29.9-102.33l1.81-0.2l-5.62,51.97c-1.2,10.57-1.74,19-1.61,25.28
			c0.13,6.29,0.57,11.14,1.3,14.55c0.73,3.41,1.44,6.05,2.11,7.93c0.67,1.87,1,3.61,1,5.22c0,1.47-0.8,2.71-2.41,3.71
			c-1.61,1-3.61,1.84-6.02,2.51c-2.41,0.67-4.72,1.17-6.92,1.5C1189.94,1044.68,1188.23,1044.85,1187.03,1044.85z"/>
		<path class="st0" d="M1358.18,1045.65c-7.49,0-12.84-3.04-16.05-9.13c-3.21-6.08-4.82-14.61-4.82-25.58
			c0-9.76,1.44-18.73,4.31-26.89c2.87-8.16,6.79-15.21,11.74-21.17c4.95-5.95,10.7-10.57,17.26-13.84
			c6.55-3.28,13.51-4.92,20.87-4.92c5.75,0,11,0.77,15.75,2.31c4.75,1.54,8.79,3.11,12.14,4.72l-5.82,21.07
			c-3.61-2.41-7.66-4.62-12.14-6.62c-4.48-2.01-8.63-3.58-12.44-4.71c-3.81-1.14-6.66-1.71-8.53-1.71c-3.75,0-7.19,1.84-10.33,5.52
			c-3.14,3.68-5.62,8.76-7.42,15.25c-1.81,6.49-2.71,13.94-2.71,22.37c0,7.76,0.57,13.64,1.71,17.66c1.13,4.01,2.97,6.02,5.52,6.02
			c1.74,0,4.68-1.97,8.83-5.92c4.14-3.94,9.16-10.53,15.05-19.76c5.88-9.23,12.1-21.74,18.66-37.52l5.62,17.86
			c-7.22,16.05-14.11,28.83-20.67,38.32c-6.56,9.5-12.84,16.32-18.86,20.47S1363.93,1045.65,1358.18,1045.65z M1406.13,1044.44
			c-2.68,0-4.28-1.3-4.82-3.91c-0.54-2.61-0.8-5.38-0.8-8.33c0-2.27,0.3-5.08,0.9-8.43c0.6-3.34,1.37-6.95,2.31-10.83
			c0.93-3.88,1.94-7.69,3.01-11.44l4.41-15.05l-5.82-5.22l4.82-30.3c4.28-0.67,8.06-1.54,11.34-2.61c3.28-1.07,6.02-2.01,8.23-2.81
			s3.78-1.2,4.72-1.2c1.47,0,2.21,0.8,2.21,2.41c0,0.67-0.84,3.51-2.51,8.53c-1.67,5.02-3.48,11.41-5.42,19.16
			c-1.94,7.76-3.38,16.19-4.31,25.28l-4.21,44.74H1406.13z"/>
		<path class="st0" d="M1452.28,1045.25c-1.74,0-3.04-0.3-3.91-0.9c-0.87-0.6-1.34-2.17-1.41-4.71c-0.07-2.54,0.23-6.62,0.9-12.24
			l9.43-83.47h14.04c2.01,0,3.81,1.47,5.42,4.41c1.61,2.94,2.41,6.29,2.41,10.03c0,1.74-0.5,4.45-1.5,8.13
			c-1,3.68-2.18,7.56-3.51,11.64c-1.34,4.08-2.54,7.66-3.61,10.73l-5.22,16.45l7.42-1.2l-3.61,33.51c-0.13,1.34-0.94,2.51-2.41,3.51
			c-1.47,1-3.18,1.81-5.12,2.41c-1.94,0.6-3.78,1.03-5.52,1.3C1454.35,1045.11,1453.08,1045.25,1452.28,1045.25z M1469.14,1037.62
			l-4.82-30.3c4.95-12.84,10-23.98,15.15-33.41c5.15-9.43,10.4-16.75,15.75-21.97c5.35-5.22,10.77-7.83,16.25-7.83
			c3.08,0,5.28,0.97,6.62,2.91c1.33,1.94,2.01,4.38,2.01,7.32c0,2.68-0.3,5.25-0.9,7.73c-0.6,2.48-1.47,4.51-2.61,6.12
			c-1.14,1.61-2.51,2.41-4.11,2.41c-1.47,0-3.11-0.47-4.92-1.4c-1.81-0.93-4.25-1.4-7.32-1.4c-2.01,0-4.55,2.08-7.62,6.22
			c-3.08,4.15-6.25,9.67-9.53,16.55c-3.28,6.89-6.19,14.45-8.73,22.67C1471.81,1021.47,1470.07,1029.6,1469.14,1037.62z"/>
		<path class="st0" d="M1533.34,1045.25c-2.41,0-4.28-1.47-5.62-4.41c-1.34-2.94-1.94-6.35-1.81-10.23
			c0.13-4.55,0.53-9.96,1.2-16.25c0.67-6.29,1.34-12.51,2.01-18.66l5.62-47.35c0.8-6.02,1-11.37,0.6-16.05
			c-0.4-4.68-0.94-8.83-1.61-12.44c-0.67-3.61-1-6.69-1-9.23c0-1.47,1.17-2.77,3.51-3.91c2.34-1.13,5.05-2.07,8.13-2.81
			c3.08-0.73,5.68-1.1,7.83-1.1c2.27,0,4.28,1.64,6.02,4.92c1.74,3.28,2.61,7.06,2.61,11.34c0,0.94-0.13,3.55-0.4,7.83
			c-0.27,4.28-0.8,9.16-1.61,14.65l-6.42,46.15c-1.34,9.63-2.28,19.23-2.81,28.79c-0.54,9.56-1.27,19.16-2.21,28.79H1533.34z
			 M1594.13,1044.64c-2.94,0-5.95-1.4-9.03-4.21c-3.08-2.81-6.09-6.52-9.03-11.14c-2.94-4.61-5.72-9.73-8.33-15.35
			s-4.85-11.3-6.72-17.06c-0.54-1.6-1.14-3.54-1.81-5.82c-0.67-2.27-1-4.48-1-6.62c0-1.47,0.23-2.84,0.7-4.11
			c0.47-1.27,1.17-2.64,2.11-4.11c2.67-4.28,5.92-8.36,9.73-12.24c3.81-3.88,7.99-7.32,12.54-10.33c4.55-3.01,9.23-5.35,14.05-7.02
			c4.82-1.67,9.5-2.51,14.04-2.51c3.61,0,5.99,0.87,7.12,2.61c1.13,1.74,1.71,4.15,1.71,7.22c0,2.94-0.37,5.52-1.1,7.72
			c-0.74,2.21-1.64,3.91-2.71,5.12c-1.07,1.2-2.08,1.81-3.01,1.81c-1.74,0-3.75-0.53-6.02-1.6c-2.28-1.07-5.02-1.61-8.23-1.61
			c-5.49,0-10.53,1.77-15.15,5.32c-4.62,3.55-8.2,7.46-10.74,11.74l2.01-8.63c5.75,15.38,11.04,26.96,15.85,34.71
			c4.82,7.76,8.96,13.44,12.44,17.05c2.27,2.28,4.28,3.85,6.02,4.72c1.74,0.87,2.61,1.97,2.61,3.31c0,1.74-1.1,3.45-3.31,5.12
			c-2.21,1.67-4.72,3.08-7.52,4.21S1596.14,1044.64,1594.13,1044.64z"/>
		<path class="st0" d="M1654.53,1045.65c-10.3,0-18.26-3.24-23.88-9.73c-5.62-6.49-8.43-15.42-8.43-26.79
			c0-9.5,1.34-18.19,4.01-26.08c2.67-7.89,6.42-14.78,11.24-20.67c4.82-5.88,10.46-10.43,16.96-13.64
			c6.49-3.21,13.54-4.82,21.17-4.82c9.09,0,16.05,1.94,20.87,5.82c4.82,3.88,7.22,9.43,7.22,16.65c0,7.36-2.44,13.78-7.32,19.26
			c-4.88,5.49-11.91,10.17-21.07,14.04c-9.16,3.88-20.1,7.16-32.81,9.83l-2.61-12.04c7.35-0.93,14.11-2.54,20.27-4.82
			c6.15-2.27,11.1-5.32,14.85-9.13c3.74-3.81,5.62-8.33,5.62-13.54c0-3.61-0.7-6.35-2.11-8.23c-1.4-1.87-3.91-2.81-7.52-2.81
			c-5.49,0-10.13,2.01-13.94,6.02c-3.81,4.01-6.69,9.23-8.63,15.65c-1.94,6.42-2.91,13.24-2.91,20.47c0,9.77,1.5,16.29,4.51,19.56
			c3.01,3.28,7.46,4.92,13.34,4.92c6.15,0,11.54-0.97,16.15-2.91c4.61-1.94,8.59-3.98,11.94-6.12c1.07-0.67,2.01-1.2,2.81-1.61
			s1.47-0.6,2.01-0.6c0.67,0,1.2,0.27,1.6,0.8c0.4,0.54,0.6,1.14,0.6,1.81c0,2.41-1.07,5.22-3.21,8.43
			c-2.14,3.21-5.19,6.35-9.13,9.43c-3.95,3.08-8.6,5.65-13.95,7.73C1666.83,1044.61,1660.95,1045.65,1654.53,1045.65z"/>
		<path class="st0" d="M1733.38,1045.65c-6.42,0-10.94-1.87-13.54-5.62c-2.61-3.74-3.45-9.63-2.51-17.66l7.83-61.2h-6.42
			c-2.01,0-3.01-1.07-3.01-3.21c0-1.34,0.9-3.28,2.71-5.82c1.81-2.54,4.11-5.35,6.92-8.43c2.81-3.08,5.72-6.02,8.73-8.83
			s5.78-5.12,8.33-6.92c2.54-1.81,4.48-2.71,5.82-2.71c1.47,0,2.47,0.57,3.01,1.71c0.53,1.14,0.67,2.58,0.4,4.31l-1.81,15.85h22.47
			c2.01,0,3.18,0.34,3.51,1c0.33,0.67,0.23,1.74-0.3,3.21c-1.61,4.55-3.11,7.32-4.51,8.33s-3.98,1.5-7.72,1.5h-16.05l-5.02,42.94
			c-0.27,2.54-0.5,4.95-0.7,7.22c-0.2,2.28-0.3,4.35-0.3,6.22c0,3.08,0.73,5.25,2.21,6.52c1.47,1.27,3.88,1.91,7.22,1.91
			c3.21,0,5.98-0.67,8.33-2.01c2.34-1.34,3.98-2.01,4.92-2.01c1.07,0,1.61,0.67,1.61,2.01c0,1.34-0.7,3.21-2.11,5.62
			c-1.41,2.41-3.48,4.85-6.22,7.32c-2.74,2.48-6.12,4.55-10.13,6.22C1743.01,1044.81,1738.46,1045.65,1733.38,1045.65z"/>
		<path class="st0" d="M1807.62,1045.65c-10.17,0-18.16-1.57-23.98-4.71s-8.73-7.39-8.73-12.74c0-2.41,0.37-4.65,1.1-6.72
			c0.73-2.07,1.84-3.11,3.31-3.11c0.53,0,1.13,0.13,1.81,0.4c0.67,0.27,1.94,1,3.81,2.21c2.67,1.74,5.65,3.34,8.93,4.82
			c3.28,1.47,6.62,2.64,10.03,3.51c3.41,0.87,6.59,1.3,9.53,1.3c4.28,0,7.39-1.04,9.33-3.11c1.94-2.07,2.91-4.85,2.91-8.33
			c0-2.54-0.77-4.65-2.31-6.32c-1.54-1.67-3.98-3.58-7.32-5.72l-12.44-8.03c-5.22-3.34-9.6-6.92-13.14-10.73
			c-3.55-3.81-5.32-8.79-5.32-14.95c0-8.69,3.34-15.75,10.03-21.17c6.69-5.42,16.12-8.13,28.29-8.13c8.56,0,14.85,0.87,18.86,2.61
			c4.01,1.74,6.02,4.75,6.02,9.03c0,3.35-0.5,6.15-1.5,8.43c-1,2.28-2.38,3.41-4.11,3.41c-0.54,0-1.24-0.13-2.11-0.4
			c-0.87-0.27-1.64-0.6-2.31-1c-1.07-0.67-2.74-1.6-5.02-2.81c-2.28-1.2-4.82-2.31-7.62-3.31c-2.81-1-5.75-1.5-8.83-1.5
			c-3.08,0-5.59,0.9-7.52,2.71c-1.94,1.81-2.91,4.25-2.91,7.32c0,2.54,0.8,4.68,2.41,6.42c1.61,1.74,4.28,3.55,8.03,5.42l13.04,6.02
			c5.48,2.54,9.93,5.52,13.34,8.93c3.41,3.41,5.12,8.46,5.12,15.15c0,7.89-1.91,14.45-5.72,19.66s-8.83,9.1-15.05,11.64
			C1821.36,1044.38,1814.71,1045.65,1807.62,1045.65z"/>
	</g>
</g>
<g>
	<g>
		<g>
			<g>
				<polygon class="st1" points="281.67,978.15 280.69,978.9 280.69,977.38 				"/>
			</g>
			<g>
				<path class="st1" d="M381.93,1056.48c-0.01,0.01-0.01,0.01-0.01,0.03l-6.63-5.22L381.93,1056.48z"/>
			</g>
		</g>
		<g class="st2">
			<polygon class="st3" points="374.1,1050.37 350.38,1031.84 350.44,1031.76 			"/>
		</g>
		<g class="st2">
			<path class="st3" d="M381.93,1056.48c-0.01,0.01-0.01,0.01-0.01,0.03l-6.63-5.22L381.93,1056.48z"/>
		</g>
		<g class="st4">
			<polygon class="st5" points="374.1,1050.37 350.38,1031.84 350.44,1031.76 			"/>
		</g>
		<g class="st4">
			<path class="st5" d="M381.93,1056.48c-0.01,0.01-0.01,0.01-0.01,0.03l-6.63-5.22L381.93,1056.48z"/>
		</g>
		<g class="st6">
			<polygon class="st5" points="374.1,1050.37 350.38,1031.84 350.44,1031.76 			"/>
		</g>
		<g class="st6">
			<path class="st5" d="M381.93,1056.48c-0.01,0.01-0.01,0.01-0.01,0.03l-6.63-5.22L381.93,1056.48z"/>
		</g>
		<g class="st7">
			<polygon class="st5" points="281.67,978.15 280.69,978.9 280.69,977.38 			"/>
		</g>
		<g class="st7">
			<polygon class="st5" points="374.1,1050.37 350.38,1031.84 350.44,1031.76 			"/>
		</g>
		<g class="st7">
			<path class="st5" d="M381.93,1056.48c-0.01,0.01-0.01,0.01-0.01,0.03l-6.63-5.22L381.93,1056.48z"/>
		</g>
		<g>
			<path class="st8" d="M512.19,866.24v64.55l-127.7,127.7l-2.56-2.01l-6.64-5.19l-1.19-0.92l-23.66-18.61l-0.06,0.07l-39.76-31.06
				l-9.24-7.24l-19.71-15.38l-0.98-0.77l-12.96-10.14l-108.17,108.17l-4.07,4.07V866.24c0-24.63,19.96-44.59,44.59-44.59H467.6
				c6.09,0,11.91,1.22,17.2,3.45c0.36,0.15,0.71,0.3,1.06,0.46C501.37,832.51,512.19,848.12,512.19,866.24z"/>
		</g>
		<g>
			<path class="st9" d="M512.19,930.78v202.98c0,7.42-1.81,14.4-5.02,20.56c-7.42,14.28-22.35,24.03-39.56,24.03H200.07
				c-18.13,0-33.72-10.82-40.68-26.35c-2.51-5.56-3.91-11.74-3.91-18.24v-54.28l4.07-4.07l108.17-108.17l12.96,10.14v1.52l0.98-0.74
				l19.71,15.38l9.24,7.24l39.76,31.06l23.72,18.53l1.19,0.92l6.63,5.22c0-0.01,0-0.01,0.01-0.03l2.56,2.01L512.19,930.78z"/>
		</g>
		<g class="st10">
			<polygon class="st5" points="281.67,978.15 280.69,978.9 280.69,977.38 			"/>
		</g>
		<g class="st10">
			<path class="st5" d="M381.93,1056.48c-0.01,0.01-0.01,0.01-0.01,0.03l-6.63-5.22L381.93,1056.48z"/>
		</g>
	</g>
	<g>
		<path class="st0" d="M427.42,1062.59c5.08-12.75,7.6-27.05,7.6-42.87v-47.38c0-20.39-4.15-38.19-12.44-53.36
			c-8.32-15.18-20.01-26.95-35.05-35.31c-15.05-8.38-32.66-12.57-52.79-12.57c-20.16,0-37.77,4.19-52.81,12.57
			c-15.05,8.37-26.74,20.13-35.04,35.31c-8.31,15.17-12.47,32.97-12.47,53.36v47.38c0,20.28,4.16,38.03,12.47,53.27
			c8.3,15.24,19.99,27.05,35.04,35.43c15.04,8.37,32.65,12.54,52.81,12.54c20.13,0,37.74-4.18,52.79-12.54
			c5-2.81,9.64-5.99,13.92-9.54l23.7,18.01c4.22,3.21,10.24,2.44,13.51-1.73l15.58-19.85c3.35-4.27,2.55-10.46-1.77-13.73
			L427.42,1062.59z M381.39,1021.03c0,2.2-0.1,4.35-0.3,6.42l-19.3-14.64c-4.21-3.2-10.21-2.43-13.49,1.72l-15.55,19.7
			c-3.37,4.26-2.58,10.46,1.75,13.75l22.03,16.74c-6.31,3-13.56,4.48-21.78,4.48c-14.13,0-25.42-4.41-33.91-13.23
			c-8.51-8.82-12.75-20.46-12.75-34.95v-50.02c0-14.6,4.23-26.28,12.75-35.02c8.48-8.76,19.78-13.14,33.91-13.14
			c14.1,0,25.39,4.38,33.91,13.14c8.48,8.75,12.75,20.42,12.75,35.02V1021.03z"/>
	</g>
	<g>
		<path class="st9" d="M469.18,1191.77H198.49c-31.12,0-56.43-25.31-56.43-56.43V864.66c0-31.12,25.31-56.43,56.43-56.43h270.68
			c31.12,0,56.43,25.31,56.43,56.43v270.68C525.61,1166.46,500.29,1191.77,469.18,1191.77z M198.49,813.09
			c-28.44,0-51.57,23.13-51.57,51.57v270.68c0,28.44,23.13,51.57,51.57,51.57h270.68c28.44,0,51.57-23.13,51.57-51.57V864.66
			c0-28.44-23.13-51.57-51.57-51.57H198.49z"/>
	</g>
</g>
</svg>
