<?xml version="1.0" encoding="utf-8"?>
<!-- Generator: Adobe Illustrator 24.3.0, SVG Export Plug-In . SVG Version: 6.00 Build 0)  -->
<svg version="1.1" id="Layer_1" xmlns="http://www.w3.org/2000/svg" xmlns:xlink="http://www.w3.org/1999/xlink" x="0px" y="0px"
	 viewBox="0 0 2000 2000" style="enable-background:new 0 0 2000 2000;" xml:space="preserve">
<style type="text/css">
	.st0{fill:#606060;}
	.st1{opacity:0.8;fill:#3F3F3F;}
	.st2{opacity:0.7;fill:#838383;}
	.st3{opacity:0.3;fill:#838383;}
	.st4{opacity:0.06;fill:#838383;}
	.st5{fill:#0069A4;}
	.st6{fill:#00E3A4;}
	.st7{opacity:0.5;fill:#838383;}
	.st8{fill:#FFFFFF;}
	.st9{fill:none;stroke:#00E3A4;stroke-width:5.007;stroke-miterlimit:10;}
</style>
<g>
	<g>
		<g>
			<path d="M633.58,1056.79c-11.85,0-22.21-2.31-31.1-6.92s-15.78-11.54-20.66-20.77c-4.89-9.23-7.34-20.59-7.34-34.1
				c0-12.4,1.93-23.8,5.79-34.2c3.85-10.4,9.26-19.42,16.22-27.07c6.96-7.65,15.05-13.57,24.28-17.77c9.23-4.2,19.29-6.3,30.17-6.3
				c18.6,0,33.09,5.2,43.5,15.6c10.4,10.4,15.6,25.73,15.6,45.98c0,12.4-1.93,23.8-5.79,34.2c-3.86,10.4-9.27,19.46-16.22,27.17
				c-6.96,7.72-15.05,13.67-24.28,17.88C654.51,1054.68,644.46,1056.79,633.58,1056.79z M636.26,1040.25
				c5.79,0,11.43-1.55,16.94-4.65c5.51-3.1,10.47-7.54,14.88-13.33c4.41-5.79,7.92-12.64,10.54-20.56
				c2.62-7.92,3.93-16.7,3.93-26.35c0-11.29-1.55-20.56-4.65-27.79c-3.1-7.23-7.23-12.61-12.4-16.12
				c-5.17-3.51-10.92-5.27-17.25-5.27c-8.4,0-16.12,2.72-23.14,8.16c-7.03,5.44-12.64,13.05-16.84,22.83
				c-4.2,9.78-6.3,21.08-6.3,33.89c0,11.16,1.55,20.39,4.65,27.69c3.1,7.3,7.26,12.71,12.5,16.22
				C624.34,1038.5,630.06,1040.25,636.26,1040.25z M689.78,1088.61c-4.69,0-9.68-1.34-14.98-4.03c-5.31-2.69-10.57-6.51-15.81-11.47
				c-5.24-4.96-10.26-10.88-15.08-17.77l18.39-8.27c3.99,3.58,7.61,6.65,10.85,9.2c3.24,2.55,6.61,4.58,10.13,6.1
				c3.51,1.51,7.65,2.62,12.4,3.31c4.75,0.69,10.64,1.03,17.67,1.03c1.1,0,1.89,0.27,2.38,0.83c0.48,0.55,0.72,1.38,0.72,2.48
				c0,1.65-0.86,3.54-2.58,5.68c-1.72,2.13-3.96,4.2-6.72,6.2c-2.76,2-5.65,3.62-8.68,4.86
				C695.43,1087.99,692.54,1088.61,689.78,1088.61z"/>
			<path d="M754.05,1056.58c-11.85,0-21.04-3.48-27.59-10.44c-6.54-6.96-9.82-17.18-9.82-30.69c0-8.95,1.48-17.25,4.44-24.9
				c2.96-7.65,6.99-14.36,12.09-20.15c5.09-5.79,10.98-10.3,17.67-13.54c6.68-3.24,13.74-4.86,21.18-4.86
				c11.85,0,20.9,3.51,27.17,10.54c6.27,7.03,9.4,17.64,9.4,31.82c0,8.54-1.41,16.57-4.24,24.07c-2.83,7.51-6.72,14.12-11.68,19.84
				c-4.96,5.72-10.75,10.2-17.36,13.43C768.72,1054.96,761.62,1056.58,754.05,1056.58z M759.01,1041.08c5.23,0,9.74-1.93,13.54-5.79
				c3.79-3.86,6.68-9.16,8.68-15.91c2-6.75,3-14.33,3-22.73c0-8.95-1.34-16.05-4.03-21.28c-2.69-5.23-7.13-7.85-13.33-7.85
				c-5.1,0-9.61,1.93-13.54,5.79c-3.93,3.86-6.96,9.13-9.09,15.81c-2.14,6.68-3.2,14.29-3.2,22.83c0,9.51,1.51,16.74,4.55,21.7
				C748.6,1038.6,753.08,1041.08,759.01,1041.08z"/>
			<path d="M826.16,1056.37c-1.79,0-3.14-0.31-4.03-0.93c-0.9-0.62-1.38-2.24-1.45-4.86c-0.07-2.62,0.24-6.82,0.93-12.61l9.71-85.96
				h14.46c2.07,0,3.93,1.52,5.58,4.55c1.65,3.03,2.48,6.48,2.48,10.33c0,1.79-0.52,4.58-1.55,8.37c-1.03,3.79-2.24,7.78-3.62,11.99
				c-1.38,4.2-2.62,7.89-3.72,11.06l-5.37,16.94l7.65-1.24l-3.72,34.51c-0.14,1.38-0.97,2.58-2.48,3.62
				c-1.52,1.03-3.27,1.86-5.27,2.48c-2,0.62-3.89,1.07-5.68,1.34C828.3,1056.23,826.99,1056.37,826.16,1056.37z M843.52,1048.52
				l-4.96-31.2c5.1-13.23,10.3-24.69,15.6-34.41c5.3-9.71,10.71-17.25,16.22-22.63c5.51-5.37,11.09-8.06,16.74-8.06
				c3.17,0,5.44,1,6.82,3c1.38,2,2.07,4.51,2.07,7.54c0,2.76-0.31,5.41-0.93,7.96c-0.62,2.55-1.52,4.65-2.69,6.3
				c-1.17,1.65-2.58,2.48-4.24,2.48c-1.52,0-3.2-0.48-5.06-1.45c-1.86-0.96-4.38-1.45-7.54-1.45c-2.07,0-4.69,2.14-7.85,6.41
				c-3.17,4.27-6.44,9.95-9.81,17.05c-3.38,7.1-6.38,14.88-8.99,23.35C846.28,1031.88,844.48,1040.25,843.52,1048.52z"/>
			<path d="M930.72,1056.79c-5.79,0-10.44-2.17-13.95-6.51c-3.51-4.34-5.68-10.64-6.51-18.91l-4.55-46.29
				c-0.28-3.17-0.72-6.37-1.34-9.61c-0.62-3.24-1.41-5.82-2.38-7.75c-0.97-1.93-1.79-3.27-2.48-4.03c-0.69-0.76-1.03-1.69-1.03-2.79
				c0-1.1,0.79-2.17,2.38-3.2c1.58-1.03,3.54-2,5.89-2.89c2.34-0.89,4.68-1.58,7.03-2.07c2.34-0.48,4.27-0.72,5.79-0.72
				c2.48,0,4.47,1.31,5.99,3.93c1.51,2.62,2.69,7.78,3.51,15.5l5.37,52.49c0.41,4,1.14,7.03,2.17,9.09s2.51,3.1,4.44,3.1
				c1.51,0,3.62-0.96,6.3-2.89c2.69-1.93,5.44-5.17,8.27-9.71c2.82-4.55,5.2-10.61,7.13-18.19c1.93-7.57,2.89-17.01,2.89-28.31
				c0-3.31-0.45-5.85-1.34-7.65c-0.9-1.79-1.34-3.37-1.34-4.75c0-1.24,0.76-2.62,2.27-4.13c1.51-1.51,3.41-2.89,5.68-4.13
				s4.55-2.27,6.82-3.1c2.27-0.83,4.1-1.24,5.48-1.24c1.65,0,3.31,0.48,4.96,1.45c1.65,0.97,2.48,3.38,2.48,7.23
				c0,6.61-0.97,14.16-2.89,22.63c-1.93,8.47-4.65,16.98-8.16,25.52c-3.51,8.54-7.75,16.46-12.71,23.76
				c-4.96,7.3-10.47,13.16-16.53,17.56C944.29,1054.58,937.75,1056.79,930.72,1056.79z"/>
			<path d="M1020.2,1056.79c-7.72,0-13.22-3.14-16.53-9.4c-3.31-6.27-4.96-15.05-4.96-26.35c0-10.05,1.48-19.29,4.44-27.69
				c2.96-8.4,6.99-15.67,12.09-21.8c5.09-6.13,11.02-10.88,17.77-14.26c6.75-3.37,13.91-5.06,21.49-5.06
				c5.92,0,11.33,0.79,16.22,2.38c4.89,1.58,9.06,3.2,12.5,4.86l-5.99,21.7c-3.72-2.48-7.89-4.75-12.5-6.82
				c-4.62-2.07-8.88-3.68-12.81-4.86c-3.93-1.17-6.85-1.76-8.78-1.76c-3.86,0-7.41,1.9-10.64,5.68c-3.24,3.79-5.79,9.02-7.65,15.71
				c-1.86,6.68-2.79,14.36-2.79,23.04c0,7.99,0.58,14.05,1.76,18.18c1.17,4.13,3.06,6.2,5.68,6.2c1.79,0,4.82-2.03,9.09-6.1
				c4.27-4.06,9.43-10.85,15.5-20.35c6.06-9.51,12.47-22.39,19.22-38.64l5.79,18.39c-7.44,16.53-14.54,29.69-21.28,39.47
				c-6.75,9.78-13.23,16.81-19.42,21.08S1026.12,1056.79,1020.2,1056.79z M1069.58,1055.54c-2.76,0-4.41-1.34-4.96-4.03
				c-0.55-2.69-0.83-5.54-0.83-8.58c0-2.34,0.31-5.23,0.93-8.68c0.62-3.44,1.41-7.16,2.38-11.16c0.96-3.99,2-7.92,3.1-11.78
				l4.55-15.5l-5.99-5.37l4.96-31.2c4.41-0.69,8.3-1.58,11.68-2.69c3.37-1.1,6.2-2.07,8.47-2.89c2.27-0.83,3.89-1.24,4.86-1.24
				c1.51,0,2.27,0.83,2.27,2.48c0,0.69-0.86,3.62-2.58,8.78c-1.72,5.17-3.58,11.75-5.58,19.73c-2,7.99-3.48,16.67-4.44,26.04
				l-4.34,46.08H1069.58z"/>
			<path d="M1170.42,1055.96c-2.21,0-3.65-1.03-4.34-3.1c-0.69-2.07-1.03-4.55-1.03-7.44c0-4.82,0.27-9.95,0.83-15.4
				c0.55-5.44,1.1-10.78,1.65-16.01l11.37-104.15l17.15-0.21c5.65-0.14,9.54,0.24,11.68,1.14c2.13,0.9,3.54,2.72,4.24,5.48
				l30.58,111.79l-10.75-0.41l47.73-103.94c1.79-3.85,5.09-7.13,9.92-9.82c4.82-2.69,10.67-4.03,17.56-4.03
				c2.75,0,4.86,0.66,6.3,1.96c1.45,1.31,1.96,3.82,1.55,7.54l-14.05,135.76h-16.53c-1.79,0-3.17-1.1-4.13-3.31
				c-0.97-2.2-1.45-5.3-1.45-9.3c0-5.65,0.17-11.78,0.52-18.39c0.34-6.61,0.86-12.95,1.55-19.01l7.65-65.3l1.24,0.83l-27.07,58.27
				c-5.51,11.85-9.99,21.25-13.43,28.21c-3.45,6.96-6.23,12.16-8.37,15.6c-2.14,3.44-3.96,5.68-5.48,6.72
				c-1.52,1.03-3.1,1.55-4.75,1.55c-1.79,0-3.27-0.38-4.44-1.14c-1.17-0.76-2.1-2.38-2.79-4.86l-30.79-105.39l1.86-0.21l-5.79,53.52
				c-1.24,10.88-1.79,19.56-1.65,26.04c0.14,6.48,0.58,11.47,1.34,14.98c0.76,3.51,1.48,6.23,2.17,8.16
				c0.69,1.93,1.03,3.72,1.03,5.37c0,1.52-0.83,2.79-2.48,3.82s-3.72,1.9-6.2,2.58s-4.86,1.2-7.13,1.55
				C1173.42,1055.78,1171.66,1055.96,1170.42,1055.96z"/>
			<path d="M1346.69,1056.79c-7.72,0-13.22-3.14-16.53-9.4c-3.31-6.27-4.96-15.05-4.96-26.35c0-10.05,1.48-19.29,4.44-27.69
				c2.96-8.4,6.99-15.67,12.09-21.8c5.09-6.13,11.02-10.88,17.77-14.26c6.75-3.37,13.91-5.06,21.49-5.06
				c5.92,0,11.33,0.79,16.22,2.38c4.89,1.58,9.06,3.2,12.5,4.86l-5.99,21.7c-3.72-2.48-7.89-4.75-12.5-6.82
				c-4.62-2.07-8.88-3.68-12.81-4.86c-3.93-1.17-6.85-1.76-8.78-1.76c-3.86,0-7.41,1.9-10.64,5.68c-3.24,3.79-5.79,9.02-7.65,15.71
				c-1.86,6.68-2.79,14.36-2.79,23.04c0,7.99,0.58,14.05,1.76,18.18c1.17,4.13,3.06,6.2,5.68,6.2c1.79,0,4.82-2.03,9.09-6.1
				c4.27-4.06,9.43-10.85,15.5-20.35c6.06-9.51,12.47-22.39,19.22-38.64l5.79,18.39c-7.44,16.53-14.54,29.69-21.28,39.47
				c-6.75,9.78-13.23,16.81-19.42,21.08S1352.61,1056.79,1346.69,1056.79z M1396.08,1055.54c-2.76,0-4.41-1.34-4.96-4.03
				c-0.55-2.69-0.83-5.54-0.83-8.58c0-2.34,0.31-5.23,0.93-8.68c0.62-3.44,1.41-7.16,2.38-11.16c0.96-3.99,2-7.92,3.1-11.78
				l4.55-15.5l-5.99-5.37l4.96-31.2c4.41-0.69,8.3-1.58,11.68-2.69c3.37-1.1,6.2-2.07,8.47-2.89c2.27-0.83,3.89-1.24,4.86-1.24
				c1.51,0,2.27,0.83,2.27,2.48c0,0.69-0.86,3.62-2.58,8.78c-1.72,5.17-3.58,11.75-5.58,19.73c-2,7.99-3.48,16.67-4.44,26.04
				l-4.34,46.08H1396.08z"/>
			<path d="M1443.6,1056.37c-1.79,0-3.13-0.31-4.03-0.93c-0.9-0.62-1.38-2.24-1.45-4.86c-0.07-2.62,0.24-6.82,0.93-12.61l9.71-85.96
				h14.46c2.07,0,3.93,1.52,5.58,4.55c1.65,3.03,2.48,6.48,2.48,10.33c0,1.79-0.52,4.58-1.55,8.37c-1.03,3.79-2.24,7.78-3.62,11.99
				c-1.38,4.2-2.62,7.89-3.72,11.06l-5.37,16.94l7.65-1.24l-3.72,34.51c-0.14,1.38-0.97,2.58-2.48,3.62
				c-1.52,1.03-3.27,1.86-5.27,2.48c-2,0.62-3.89,1.07-5.68,1.34C1445.74,1056.23,1444.43,1056.37,1443.6,1056.37z M1460.96,1048.52
				l-4.96-31.2c5.09-13.23,10.3-24.69,15.6-34.41c5.3-9.71,10.71-17.25,16.22-22.63c5.51-5.37,11.09-8.06,16.74-8.06
				c3.17,0,5.44,1,6.82,3c1.38,2,2.07,4.51,2.07,7.54c0,2.76-0.31,5.41-0.93,7.96c-0.62,2.55-1.52,4.65-2.69,6.3
				c-1.17,1.65-2.58,2.48-4.24,2.48c-1.52,0-3.2-0.48-5.06-1.45c-1.86-0.96-4.38-1.45-7.54-1.45c-2.07,0-4.69,2.14-7.85,6.41
				c-3.17,4.27-6.44,9.95-9.82,17.05c-3.38,7.1-6.37,14.88-8.99,23.35C1463.72,1031.88,1461.92,1040.25,1460.96,1048.52z"/>
			<path d="M1527.08,1056.37c-2.48,0-4.41-1.52-5.79-4.55c-1.38-3.03-2-6.54-1.86-10.54c0.13-4.68,0.55-10.26,1.24-16.74
				c0.69-6.47,1.38-12.88,2.07-19.22l5.79-48.77c0.83-6.2,1.03-11.71,0.62-16.53c-0.41-4.82-0.97-9.09-1.65-12.81
				c-0.69-3.72-1.03-6.89-1.03-9.51c0-1.51,1.2-2.86,3.62-4.03c2.41-1.17,5.2-2.13,8.37-2.89c3.17-0.76,5.85-1.14,8.06-1.14
				c2.34,0,4.41,1.69,6.2,5.06c1.79,3.38,2.69,7.27,2.69,11.68c0,0.97-0.14,3.65-0.41,8.06c-0.28,4.41-0.83,9.44-1.65,15.08
				l-6.61,47.53c-1.38,9.92-2.34,19.8-2.89,29.65c-0.55,9.85-1.31,19.74-2.27,29.65H1527.08z M1589.7,1055.75
				c-3.03,0-6.13-1.45-9.3-4.34c-3.17-2.89-6.27-6.72-9.3-11.47c-3.03-4.75-5.89-10.02-8.58-15.81c-2.69-5.79-5-11.64-6.92-17.56
				c-0.55-1.65-1.17-3.65-1.86-5.99c-0.69-2.34-1.03-4.61-1.03-6.82c0-1.51,0.24-2.93,0.72-4.24c0.48-1.31,1.2-2.72,2.17-4.24
				c2.75-4.41,6.1-8.61,10.02-12.6c3.93-3.99,8.23-7.54,12.92-10.64c4.68-3.1,9.5-5.51,14.46-7.23c4.96-1.72,9.78-2.58,14.46-2.58
				c3.72,0,6.16,0.9,7.34,2.69c1.17,1.79,1.76,4.27,1.76,7.44c0,3.03-0.38,5.68-1.14,7.96c-0.76,2.27-1.69,4.03-2.79,5.27
				c-1.1,1.24-2.14,1.86-3.1,1.86c-1.79,0-3.86-0.55-6.2-1.65c-2.34-1.1-5.17-1.65-8.47-1.65c-5.65,0-10.85,1.83-15.6,5.48
				c-4.75,3.65-8.44,7.68-11.05,12.09l2.07-8.89c5.92,15.84,11.37,27.76,16.32,35.75c4.96,7.99,9.23,13.85,12.81,17.56
				c2.34,2.34,4.41,3.96,6.2,4.86c1.79,0.9,2.69,2.03,2.69,3.41c0,1.79-1.14,3.55-3.41,5.27c-2.27,1.72-4.86,3.17-7.75,4.34
				S1591.76,1055.75,1589.7,1055.75z"/>
			<path d="M1651.9,1056.79c-10.61,0-18.8-3.34-24.59-10.02c-5.79-6.68-8.68-15.88-8.68-27.59c0-9.78,1.38-18.73,4.13-26.86
				c2.75-8.13,6.61-15.22,11.57-21.28c4.96-6.06,10.78-10.75,17.46-14.05c6.68-3.31,13.95-4.96,21.8-4.96c9.37,0,16.53,2,21.49,5.99
				c4.96,4,7.44,9.71,7.44,17.15c0,7.58-2.52,14.19-7.54,19.84c-5.03,5.65-12.26,10.47-21.7,14.46c-9.44,4-20.7,7.37-33.79,10.12
				l-2.69-12.4c7.58-0.96,14.53-2.62,20.87-4.96c6.33-2.34,11.43-5.48,15.29-9.4c3.86-3.93,5.79-8.58,5.79-13.95
				c0-3.72-0.72-6.54-2.17-8.47c-1.45-1.93-4.03-2.89-7.75-2.89c-5.65,0-10.44,2.07-14.36,6.2s-6.89,9.51-8.89,16.12
				c-2,6.61-3,13.64-3,21.08c0,10.06,1.55,16.77,4.65,20.15c3.1,3.38,7.68,5.06,13.74,5.06c6.33,0,11.88-1,16.63-3
				c4.75-2,8.85-4.1,12.29-6.3c1.1-0.69,2.07-1.24,2.89-1.65c0.83-0.41,1.51-0.62,2.07-0.62c0.69,0,1.24,0.28,1.65,0.83
				c0.41,0.55,0.62,1.17,0.62,1.86c0,2.48-1.1,5.37-3.31,8.68c-2.21,3.31-5.34,6.54-9.4,9.71c-4.06,3.17-8.85,5.82-14.36,7.96
				C1664.57,1055.72,1658.51,1056.79,1651.9,1056.79z"/>
			<path d="M1733.1,1056.79c-6.61,0-11.26-1.93-13.95-5.79c-2.69-3.86-3.55-9.92-2.58-18.18l8.06-63.03h-6.61
				c-2.07,0-3.1-1.1-3.1-3.31c0-1.38,0.93-3.37,2.79-5.99c1.86-2.62,4.24-5.51,7.13-8.68c2.89-3.17,5.89-6.2,8.99-9.09
				s5.96-5.27,8.58-7.13c2.62-1.86,4.61-2.79,5.99-2.79c1.51,0,2.55,0.59,3.1,1.76c0.55,1.17,0.69,2.65,0.41,4.44l-1.86,16.32h23.14
				c2.07,0,3.27,0.35,3.62,1.03c0.34,0.69,0.24,1.79-0.31,3.31c-1.65,4.69-3.2,7.54-4.65,8.58s-4.1,1.55-7.96,1.55h-16.53
				l-5.17,44.22c-0.28,2.62-0.52,5.1-0.72,7.44c-0.21,2.34-0.31,4.48-0.31,6.41c0,3.17,0.76,5.41,2.27,6.72
				c1.51,1.31,3.99,1.96,7.44,1.96c3.31,0,6.16-0.69,8.58-2.07c2.41-1.38,4.1-2.07,5.06-2.07c1.1,0,1.65,0.69,1.65,2.07
				c0,1.38-0.72,3.31-2.17,5.79c-1.45,2.48-3.58,5-6.41,7.54c-2.83,2.55-6.3,4.68-10.44,6.41
				C1743.02,1055.92,1738.34,1056.79,1733.1,1056.79z"/>
			<path d="M1809.56,1056.79c-10.47,0-18.7-1.62-24.69-4.86c-5.99-3.24-8.99-7.61-8.99-13.12c0-2.48,0.38-4.79,1.14-6.92
				c0.75-2.13,1.89-3.2,3.41-3.2c0.55,0,1.17,0.14,1.86,0.41c0.69,0.28,2,1.03,3.93,2.27c2.75,1.79,5.82,3.44,9.2,4.96
				c3.37,1.52,6.82,2.72,10.33,3.62c3.51,0.9,6.78,1.34,9.82,1.34c4.41,0,7.61-1.07,9.61-3.2c2-2.13,3-4.99,3-8.58
				c0-2.62-0.79-4.79-2.38-6.51c-1.59-1.72-4.1-3.68-7.54-5.89l-12.81-8.27c-5.37-3.44-9.89-7.13-13.54-11.06
				c-3.65-3.93-5.48-9.06-5.48-15.39c0-8.95,3.44-16.22,10.33-21.8c6.89-5.58,16.6-8.37,29.14-8.37c8.81,0,15.29,0.9,19.42,2.69
				c4.13,1.79,6.2,4.89,6.2,9.3c0,3.44-0.52,6.34-1.55,8.68c-1.03,2.34-2.45,3.51-4.24,3.51c-0.55,0-1.28-0.14-2.17-0.41
				c-0.9-0.27-1.69-0.62-2.38-1.03c-1.1-0.69-2.83-1.65-5.17-2.89c-2.34-1.24-4.96-2.38-7.85-3.41c-2.89-1.03-5.92-1.55-9.09-1.55
				c-3.17,0-5.75,0.93-7.75,2.79c-2,1.86-3,4.38-3,7.54c0,2.62,0.83,4.82,2.48,6.61c1.65,1.79,4.41,3.65,8.27,5.58l13.43,6.2
				c5.65,2.62,10.23,5.68,13.74,9.19c3.51,3.51,5.27,8.71,5.27,15.6c0,8.13-1.96,14.88-5.89,20.25c-3.93,5.37-9.09,9.37-15.5,11.99
				C1823.72,1055.47,1816.86,1056.79,1809.56,1056.79z"/>
		</g>
	</g>
	<g>
		<g>
			<g>
				<polygon class="st0" points="271,977.5 269.99,978.26 269.99,976.7 				"/>
				<path class="st0" d="M374.26,1058.17c-0.02,0.02-0.02,0.02-0.02,0.03l-6.83-5.37L374.26,1058.17z"/>
			</g>
			<polygon class="st1" points="366.2,1051.88 341.77,1032.79 341.83,1032.71 			"/>
			<path class="st1" d="M374.26,1058.17c-0.02,0.02-0.02,0.02-0.02,0.03l-6.83-5.37L374.26,1058.17z"/>
			<polygon class="st2" points="366.2,1051.88 341.77,1032.79 341.83,1032.71 			"/>
			<path class="st2" d="M374.26,1058.17c-0.02,0.02-0.02,0.02-0.02,0.03l-6.83-5.37L374.26,1058.17z"/>
			<polygon class="st3" points="366.2,1051.88 341.77,1032.79 341.83,1032.71 			"/>
			<path class="st3" d="M374.26,1058.17c-0.02,0.02-0.02,0.02-0.02,0.03l-6.83-5.37L374.26,1058.17z"/>
			<polygon class="st4" points="271,977.5 269.99,978.26 269.99,976.7 			"/>
			<polygon class="st4" points="366.2,1051.88 341.77,1032.79 341.83,1032.71 			"/>
			<path class="st4" d="M374.26,1058.17c-0.02,0.02-0.02,0.02-0.02,0.03l-6.83-5.37L374.26,1058.17z"/>
			<path class="st5" d="M508.41,862.24v66.48L376.9,1060.23l-2.63-2.07l-6.84-5.34l-1.22-0.95l-24.37-19.16l-0.06,0.08l-40.95-31.99
				l-9.52-7.45L271,977.5l-1.01-0.8l-13.35-10.44l-111.4,111.4l-4.19,4.19V862.24c0-25.36,20.56-45.92,45.92-45.92h275.52
				c6.28,0,12.26,1.26,17.71,3.55c0.37,0.15,0.74,0.31,1.09,0.47C497.27,827.51,508.41,843.58,508.41,862.24z"/>
			<path class="st6" d="M508.41,928.72v209.05c0,7.64-1.87,14.83-5.17,21.17c-7.64,14.71-23.02,24.75-40.75,24.75H186.97
				c-18.67,0-34.73-11.14-41.9-27.14c-2.59-5.72-4.03-12.09-4.03-18.78v-55.9l4.19-4.19l111.4-111.4l13.35,10.44v1.56l1.01-0.77
				l20.3,15.84l9.52,7.45l40.95,31.99l24.43,19.09l1.22,0.95l6.83,5.37c0-0.02,0-0.02,0.02-0.03l2.63,2.07L508.41,928.72z"/>
			<polygon class="st7" points="271,977.5 269.99,978.26 269.99,976.7 			"/>
			<path class="st7" d="M374.26,1058.17c-0.02,0.02-0.02,0.02-0.02,0.03l-6.83-5.37L374.26,1058.17z"/>
		</g>
		<path class="st8" d="M421.12,1064.46c5.23-13.13,7.83-27.86,7.83-44.15v-48.8c0-21-4.27-39.33-12.82-54.95
			c-8.57-15.64-20.61-27.75-36.1-36.37c-15.5-8.63-33.64-12.95-54.37-12.95c-20.76,0-38.89,4.32-54.38,12.95
			c-15.5,8.62-27.54,20.73-36.09,36.37c-8.56,15.62-12.85,33.95-12.85,54.95v48.8c0,20.88,4.29,39.16,12.85,54.86
			c8.54,15.7,20.58,27.86,36.09,36.49c15.49,8.62,33.62,12.92,54.38,12.92c20.73,0,38.86-4.3,54.37-12.92
			c5.15-2.9,9.93-6.17,14.34-9.83l24.41,18.55c4.35,3.31,10.54,2.51,13.92-1.79l16.05-20.45c3.45-4.4,2.63-10.77-1.83-14.15
			L421.12,1064.46z M373.71,1021.66c0,2.27-0.1,4.48-0.31,6.62l-19.88-15.07c-4.34-3.29-10.52-2.5-13.89,1.77l-16.02,20.29
			c-3.47,4.39-2.66,10.77,1.8,14.16l22.69,17.24c-6.5,3.09-13.97,4.62-22.43,4.62c-14.55,0-26.18-4.54-34.92-13.62
			c-8.77-9.08-13.13-21.08-13.13-36v-51.52c0-15.04,4.36-27.06,13.13-36.07c8.74-9.02,20.37-13.53,34.92-13.53
			c14.52,0,26.15,4.51,34.92,13.53c8.74,9.01,13.13,21.03,13.13,36.07V1021.66z"/>
		<path class="st9" d="M465.73,1195h-282c-29.82,0-54-24.18-54-54V859c0-29.82,24.18-54,54-54h282c29.82,0,54,24.18,54,54v282
			C519.73,1170.82,495.55,1195,465.73,1195z"/>
	</g>
</g>
</svg>
