<?xml version="1.0" encoding="utf-8"?>
<svg version="1.1" id="Layer_1" xmlns="http://www.w3.org/2000/svg" xmlns:xlink="http://www.w3.org/1999/xlink" width="288px" height="70px" x="0px" y="0px"
     viewBox="0 0 2000 2000" style="enable-background:new 0 0 2000 2000;" xml:space="preserve">
<style type="text/css">
    .st0{fill:#606060;}
    .st1{opacity:0.8;fill:#3F3F3F;}
    .st2{opacity:0.7;fill:#838383;}
    .st3{opacity:0.3;fill:#838383;}
    .st4{opacity:0.06;fill:#838383;}
    .st5{fill:#0069A4;}
    .st6{fill:#00E3A4;}
    .st7{opacity:0.5;fill:#838383;}
    .st8{fill:#FFFFFF;}
    .st9{fill:none;stroke:#00E3A4;stroke-width:5.007;stroke-miterlimit:10;}
</style>
  <g><g><g><path d="M91.236 152.178c-1.706 0 -3.198 -0.333 -4.478 -0.996s-2.272 -1.662 -2.975 -2.991c-0.704 -1.329 -1.057 -2.965 -1.057 -4.91q0 -2.678 0.834 -4.925c0.554 -1.498 1.333 -2.796 2.336 -3.898s2.167 -1.954 3.496 -2.559 2.778 -0.907 4.344 -0.907c2.678 0 4.765 0.749 6.264 2.246 1.498 1.498 2.246 3.705 2.246 6.621q0 2.678 -0.834 4.925c-0.556 1.498 -1.335 2.802 -2.336 3.912 -1.002 1.112 -2.167 1.968 -3.496 2.575 -1.331 0.603 -2.778 0.907 -4.344 0.907m0.386 -2.382c0.834 0 1.646 -0.223 2.439 -0.67s1.508 -1.086 2.143 -1.92 1.14 -1.82 1.518 -2.961 0.566 -2.405 0.566 -3.794c0 -1.626 -0.223 -2.961 -0.67 -4.002s-1.041 -1.816 -1.786 -2.321 -1.572 -0.759 -2.484 -0.759c-1.21 0 -2.321 0.392 -3.332 1.175 -1.012 0.783 -1.82 1.879 -2.425 3.288s-0.907 3.036 -0.907 4.88q0 2.411 0.67 3.987c0.446 1.051 1.045 1.83 1.8 2.336 0.752 0.508 1.575 0.76 2.468 0.76m7.707 6.964c-0.675 0 -1.394 -0.193 -2.157 -0.58 -0.765 -0.387 -1.522 -0.937 -2.277 -1.652s-1.477 -1.567 -2.172 -2.559l2.648 -1.191c0.575 0.516 1.096 0.958 1.562 1.325s0.952 0.66 1.459 0.878c0.505 0.217 1.102 0.377 1.786 0.477s1.532 0.148 2.544 0.148c0.158 0 0.272 0.039 0.343 0.12 0.069 0.079 0.104 0.199 0.104 0.357 0 0.238 -0.124 0.51 -0.372 0.818 -0.248 0.307 -0.57 0.605 -0.968 0.893s-0.814 0.521 -1.25 0.7c-0.438 0.177 -0.854 0.266 -1.251 0.266"/><path d="M108.583 152.148c-1.706 0 -3.03 -0.501 -3.973 -1.503 -0.942 -1.002 -1.414 -2.474 -1.414 -4.419q0 -1.933 0.639 -3.586c0.426 -1.102 1.007 -2.068 1.741 -2.902 0.733 -0.834 1.581 -1.483 2.544 -1.95q1.443 -0.7 3.05 -0.7c1.706 0 3.01 0.505 3.912 1.518s1.354 2.54 1.354 4.582c0 1.23 -0.203 2.386 -0.611 3.466 -0.408 1.081 -0.968 2.033 -1.682 2.857s-1.548 1.469 -2.5 1.934c-0.949 0.469 -1.971 0.703 -3.061 0.703m0.714 -2.232c0.753 0 1.403 -0.278 1.95 -0.834 0.546 -0.556 0.962 -1.319 1.25 -2.291s0.432 -2.064 0.432 -3.273c0 -1.289 -0.193 -2.311 -0.58 -3.064s-1.027 -1.13 -1.92 -1.13c-0.734 0 -1.384 0.278 -1.95 0.834q-0.849 0.834 -1.309 2.277c-0.308 0.962 -0.461 2.058 -0.461 3.288 0 1.369 0.217 2.411 0.655 3.125 0.433 0.713 1.079 1.07 1.932 1.07"/><path d="M118.967 152.117c-0.258 0 -0.452 -0.045 -0.58 -0.134 -0.13 -0.089 -0.199 -0.323 -0.209 -0.7s0.035 -0.982 0.134 -1.816l1.398 -12.378h2.082c0.298 0 0.566 0.219 0.804 0.655s0.357 0.933 0.357 1.488c0 0.258 -0.075 0.66 -0.223 1.205s-0.323 1.12 -0.521 1.727c-0.199 0.605 -0.377 1.136 -0.536 1.593l-0.773 2.439 1.102 -0.179 -0.536 4.969c-0.02 0.199 -0.14 0.372 -0.357 0.521 -0.219 0.148 -0.471 0.268 -0.759 0.357s-0.56 0.154 -0.818 0.193c-0.256 0.039 -0.445 0.059 -0.564 0.059m2.5 -1.13 -0.714 -4.493c0.734 -1.905 1.483 -3.555 2.246 -4.955 0.763 -1.398 1.542 -2.484 2.336 -3.259 0.793 -0.773 1.597 -1.161 2.411 -1.161 0.456 0 0.783 0.144 0.982 0.432s0.298 0.649 0.298 1.086c0 0.397 -0.045 0.779 -0.134 1.146s-0.219 0.67 -0.387 0.907 -0.372 0.357 -0.611 0.357c-0.219 0 -0.461 -0.069 -0.729 -0.209 -0.268 -0.138 -0.631 -0.209 -1.086 -0.209 -0.298 0 -0.675 0.308 -1.13 0.923 -0.456 0.615 -0.927 1.433 -1.413 2.455 -0.487 1.022 -0.919 2.143 -1.295 3.362 -0.377 1.22 -0.636 2.425 -0.775 3.616"/><path d="M134.024 152.178q-1.251 0 -2.009 -0.937c-0.505 -0.625 -0.818 -1.532 -0.937 -2.723l-0.655 -6.666c-0.04 -0.456 -0.104 -0.917 -0.193 -1.384s-0.203 -0.838 -0.343 -1.116 -0.258 -0.471 -0.357 -0.58 -0.148 -0.243 -0.148 -0.402 0.114 -0.312 0.343 -0.461c0.228 -0.148 0.51 -0.288 0.848 -0.416 0.337 -0.128 0.674 -0.228 1.012 -0.298q0.505 -0.104 0.834 -0.104c0.357 0 0.644 0.189 0.863 0.566 0.217 0.377 0.387 1.12 0.505 2.232l0.773 7.559c0.059 0.576 0.164 1.012 0.312 1.309s0.361 0.446 0.639 0.446c0.217 0 0.521 -0.138 0.907 -0.416 0.387 -0.278 0.783 -0.744 1.191 -1.398 0.406 -0.655 0.749 -1.528 1.027 -2.619 0.278 -1.09 0.416 -2.449 0.416 -4.077 0 -0.477 -0.065 -0.842 -0.193 -1.102 -0.13 -0.258 -0.193 -0.485 -0.193 -0.684 0 -0.179 0.109 -0.377 0.327 -0.595s0.491 -0.416 0.818 -0.595 0.655 -0.327 0.982 -0.446 0.59 -0.179 0.789 -0.179c0.238 0 0.477 0.069 0.714 0.209s0.357 0.487 0.357 1.041c0 0.952 -0.14 2.039 -0.416 3.259 -0.278 1.22 -0.67 2.445 -1.175 3.675s-1.116 2.37 -1.83 3.421 -1.508 1.895 -2.38 2.529c-0.874 0.634 -1.816 0.952 -2.828 0.952"/><path d="M146.909 152.178c-1.112 0 -1.904 -0.452 -2.38 -1.354 -0.477 -0.903 -0.714 -2.167 -0.714 -3.794 0 -1.447 0.213 -2.778 0.639 -3.987s1.007 -2.256 1.741 -3.139c0.733 -0.883 1.587 -1.567 2.559 -2.053 0.972 -0.485 2.003 -0.729 3.095 -0.729 0.852 0 1.632 0.114 2.336 0.343 0.704 0.228 1.305 0.461 1.8 0.7l-0.863 3.125c-0.536 -0.357 -1.136 -0.684 -1.8 -0.982 -0.665 -0.298 -1.279 -0.53 -1.845 -0.7 -0.566 -0.168 -0.986 -0.253 -1.264 -0.253 -0.556 0 -1.067 0.274 -1.532 0.818 -0.467 0.546 -0.834 1.299 -1.102 2.262q-0.402 1.443 -0.402 3.318c0 1.151 0.084 2.023 0.253 2.618 0.168 0.595 0.441 0.893 0.818 0.893 0.258 0 0.694 -0.292 1.309 -0.878 0.615 -0.585 1.358 -1.562 2.232 -2.93 0.873 -1.369 1.796 -3.224 2.768 -5.564l0.834 2.648c-1.071 2.38 -2.094 4.275 -3.064 5.684 -0.972 1.408 -1.905 2.421 -2.796 3.036s-1.768 0.922 -2.621 0.922m7.111 -0.18c-0.397 0 -0.635 -0.193 -0.714 -0.58s-0.12 -0.798 -0.12 -1.236c0 -0.337 0.045 -0.753 0.134 -1.25 0.089 -0.495 0.203 -1.031 0.343 -1.607 0.138 -0.575 0.288 -1.14 0.446 -1.696l0.655 -2.232 -0.863 -0.773 0.714 -4.493c0.635 -0.099 1.195 -0.228 1.682 -0.387 0.485 -0.158 0.893 -0.298 1.22 -0.416 0.327 -0.12 0.56 -0.179 0.7 -0.179 0.217 0 0.327 0.12 0.327 0.357 0 0.099 -0.124 0.521 -0.372 1.264 -0.248 0.744 -0.516 1.692 -0.804 2.841q-0.432 1.726 -0.639 3.75l-0.625 6.636h-2.085z"/><path d="M168.54 152.058c-0.318 0 -0.526 -0.148 -0.625 -0.446s-0.148 -0.655 -0.148 -1.071c0 -0.694 0.039 -1.433 0.12 -2.218 0.079 -0.783 0.158 -1.552 0.238 -2.305l1.637 -14.998 2.47 -0.03c0.814 -0.02 1.374 0.035 1.682 0.164 0.307 0.13 0.51 0.392 0.611 0.789l4.404 16.098 -1.548 -0.059 6.873 -14.967c0.258 -0.554 0.733 -1.027 1.428 -1.414 0.694 -0.387 1.536 -0.58 2.529 -0.58 0.396 0 0.7 0.095 0.907 0.282 0.209 0.189 0.282 0.55 0.223 1.086l-2.023 19.549h-2.38c-0.258 0 -0.456 -0.158 -0.595 -0.477 -0.14 -0.317 -0.209 -0.763 -0.209 -1.339 0 -0.814 0.024 -1.696 0.075 -2.648 0.049 -0.952 0.124 -1.865 0.223 -2.737l1.102 -9.403 0.179 0.12 -3.898 8.391c-0.793 1.706 -1.439 3.06 -1.934 4.062 -0.497 1.002 -0.897 1.751 -1.205 2.246s-0.57 0.818 -0.789 0.968c-0.219 0.148 -0.446 0.223 -0.684 0.223q-0.387 0 -0.639 -0.164t-0.402 -0.7l-4.434 -15.176 0.268 -0.03 -0.834 7.707q-0.268 2.35 -0.238 3.75c0.02 0.933 0.084 1.652 0.193 2.157s0.213 0.897 0.312 1.175 0.148 0.536 0.148 0.773c0 0.219 -0.12 0.402 -0.357 0.55s-0.536 0.274 -0.893 0.372 -0.7 0.173 -1.027 0.223c-0.327 0.053 -0.58 0.079 -0.759 0.079"/><path d="M193.923 152.178c-1.112 0 -1.904 -0.452 -2.38 -1.354 -0.477 -0.903 -0.714 -2.167 -0.714 -3.794 0 -1.447 0.213 -2.778 0.639 -3.987s1.007 -2.256 1.741 -3.139c0.733 -0.883 1.587 -1.567 2.559 -2.053 0.972 -0.485 2.003 -0.729 3.095 -0.729 0.852 0 1.632 0.114 2.336 0.343 0.704 0.228 1.305 0.461 1.8 0.7l-0.863 3.125c-0.536 -0.357 -1.136 -0.684 -1.8 -0.982 -0.665 -0.298 -1.279 -0.53 -1.845 -0.7 -0.566 -0.168 -0.986 -0.253 -1.264 -0.253 -0.556 0 -1.067 0.274 -1.532 0.818 -0.467 0.546 -0.834 1.299 -1.102 2.262q-0.402 1.443 -0.402 3.318c0 1.151 0.084 2.023 0.253 2.618 0.168 0.595 0.441 0.893 0.818 0.893 0.258 0 0.694 -0.292 1.309 -0.878 0.615 -0.585 1.358 -1.562 2.232 -2.93 0.873 -1.369 1.796 -3.224 2.768 -5.564l0.834 2.648c-1.071 2.38 -2.094 4.275 -3.064 5.684 -0.972 1.408 -1.905 2.421 -2.796 3.036s-1.768 0.922 -2.621 0.922m7.112 -0.18c-0.397 0 -0.635 -0.193 -0.714 -0.58s-0.12 -0.798 -0.12 -1.236c0 -0.337 0.045 -0.753 0.134 -1.25 0.089 -0.495 0.203 -1.031 0.343 -1.607 0.138 -0.575 0.288 -1.14 0.446 -1.696l0.655 -2.232 -0.863 -0.773 0.714 -4.493c0.635 -0.099 1.195 -0.228 1.682 -0.387 0.485 -0.158 0.893 -0.298 1.22 -0.416 0.327 -0.12 0.56 -0.179 0.7 -0.179 0.217 0 0.327 0.12 0.327 0.357 0 0.099 -0.124 0.521 -0.372 1.264 -0.248 0.744 -0.516 1.692 -0.804 2.841q-0.432 1.726 -0.639 3.75l-0.625 6.636h-2.085z"/><path d="M207.878 152.117c-0.258 0 -0.451 -0.045 -0.58 -0.134s-0.199 -0.323 -0.209 -0.7 0.035 -0.982 0.134 -1.816l1.398 -12.378h2.082c0.298 0 0.566 0.219 0.804 0.655s0.357 0.933 0.357 1.488c0 0.258 -0.075 0.66 -0.223 1.205s-0.323 1.12 -0.521 1.727c-0.199 0.605 -0.377 1.136 -0.536 1.593l-0.773 2.439 1.102 -0.179 -0.536 4.969c-0.02 0.199 -0.14 0.372 -0.357 0.521 -0.219 0.148 -0.471 0.268 -0.759 0.357s-0.56 0.154 -0.818 0.193c-0.256 0.039 -0.445 0.059 -0.564 0.059m2.5 -1.13 -0.714 -4.493c0.733 -1.905 1.483 -3.555 2.246 -4.955 0.763 -1.398 1.542 -2.484 2.336 -3.259 0.793 -0.773 1.597 -1.161 2.411 -1.161 0.456 0 0.783 0.144 0.982 0.432s0.298 0.649 0.298 1.086c0 0.397 -0.045 0.779 -0.134 1.146s-0.219 0.67 -0.387 0.907 -0.372 0.357 -0.611 0.357c-0.219 0 -0.461 -0.069 -0.729 -0.209 -0.268 -0.138 -0.631 -0.209 -1.086 -0.209 -0.298 0 -0.675 0.308 -1.13 0.923 -0.456 0.615 -0.927 1.433 -1.414 2.455s-0.917 2.143 -1.295 3.362c-0.376 1.22 -0.635 2.425 -0.773 3.616"/><path d="M219.9 152.117c-0.357 0 -0.635 -0.219 -0.834 -0.655s-0.288 -0.942 -0.268 -1.518c0.019 -0.674 0.079 -1.477 0.179 -2.411 0.099 -0.932 0.199 -1.855 0.298 -2.768l0.834 -7.023c0.12 -0.893 0.148 -1.686 0.089 -2.38s-0.14 -1.309 -0.238 -1.845c-0.099 -0.536 -0.148 -0.992 -0.148 -1.369 0 -0.217 0.173 -0.412 0.521 -0.58 0.347 -0.168 0.749 -0.307 1.205 -0.416s0.842 -0.164 1.161 -0.164c0.337 0 0.635 0.243 0.893 0.729 0.258 0.487 0.387 1.047 0.387 1.682 0 0.14 -0.02 0.526 -0.059 1.161 -0.04 0.635 -0.12 1.359 -0.238 2.172l-0.952 6.844c-0.199 1.428 -0.337 2.851 -0.416 4.27s-0.189 2.843 -0.327 4.27h-2.088zm9.017 -0.089c-0.436 0 -0.883 -0.209 -1.339 -0.625s-0.903 -0.968 -1.339 -1.652q-0.654 -1.026 -1.236 -2.277c-0.387 -0.834 -0.72 -1.676 -0.996 -2.529 -0.079 -0.238 -0.168 -0.526 -0.268 -0.863s-0.148 -0.664 -0.148 -0.982c0 -0.217 0.035 -0.422 0.104 -0.611s0.173 -0.392 0.312 -0.611c0.396 -0.635 0.878 -1.24 1.443 -1.814a11.52 11.52 0 0 1 1.86 -1.532q1.011 -0.67 2.082 -1.041t2.082 -0.372c0.536 0 0.887 0.13 1.057 0.387 0.168 0.258 0.253 0.615 0.253 1.071 0 0.436 -0.055 0.818 -0.164 1.146 -0.109 0.327 -0.243 0.58 -0.402 0.759s-0.308 0.268 -0.446 0.268c-0.258 0 -0.556 -0.079 -0.893 -0.238s-0.744 -0.238 -1.22 -0.238c-0.814 0 -1.562 0.264 -2.246 0.789s-1.215 1.106 -1.591 1.741l0.298 -1.28c0.852 2.281 1.637 3.997 2.35 5.148 0.714 1.151 1.329 1.994 1.845 2.529 0.337 0.337 0.635 0.57 0.893 0.7s0.387 0.292 0.387 0.491c0 0.258 -0.164 0.511 -0.491 0.759s-0.7 0.456 -1.116 0.625 -0.775 0.249 -1.071 0.249"/><path d="M237.874 152.178c-1.528 0 -2.707 -0.481 -3.541 -1.443s-1.25 -2.287 -1.25 -3.973c0 -1.408 0.199 -2.697 0.595 -3.868s0.952 -2.192 1.666 -3.064 1.552 -1.548 2.514 -2.023c0.962 -0.477 2.009 -0.714 3.139 -0.714 1.349 0 2.38 0.288 3.095 0.863 0.714 0.576 1.071 1.398 1.071 2.47 0 1.092 -0.363 2.043 -1.086 2.857 -0.724 0.814 -1.765 1.508 -3.125 2.082 -1.359 0.576 -2.981 1.061 -4.866 1.457l-0.387 -1.786c1.092 -0.138 2.092 -0.377 3.005 -0.714 0.912 -0.337 1.646 -0.789 2.202 -1.354q0.834 -0.849 0.834 -2.009c0 -0.536 -0.104 -0.942 -0.312 -1.22s-0.58 -0.416 -1.116 -0.416c-0.814 0 -1.503 0.298 -2.068 0.893s-0.992 1.369 -1.28 2.321 -0.432 1.964 -0.432 3.036c0 1.449 0.223 2.415 0.67 2.902s1.106 0.729 1.979 0.729c0.912 0 1.711 -0.144 2.395 -0.432s1.274 -0.59 1.77 -0.907c0.158 -0.099 0.298 -0.179 0.416 -0.238 0.12 -0.059 0.217 -0.089 0.298 -0.089 0.099 0 0.179 0.04 0.238 0.12s0.089 0.168 0.089 0.268c0 0.357 -0.158 0.773 -0.477 1.25s-0.769 0.942 -1.354 1.398 -1.274 0.838 -2.068 1.146c-0.789 0.305 -1.662 0.459 -2.614 0.459"/><path d="M249.566 152.178q-1.428 0 -2.009 -0.834t-0.372 -2.618l1.161 -9.076h-0.952c-0.298 0 -0.446 -0.158 -0.446 -0.477 0 -0.199 0.134 -0.485 0.402 -0.863s0.611 -0.793 1.027 -1.25 0.848 -0.893 1.295 -1.309 0.858 -0.759 1.236 -1.027 0.664 -0.402 0.863 -0.402c0.217 0 0.367 0.085 0.446 0.253s0.099 0.382 0.059 0.639l-0.268 2.35h3.332c0.298 0 0.471 0.05 0.521 0.148 0.049 0.099 0.035 0.258 -0.045 0.477 -0.238 0.675 -0.461 1.086 -0.67 1.236s-0.59 0.223 -1.146 0.223h-2.38l-0.744 6.368q-0.06 0.566 -0.104 1.071c-0.03 0.337 -0.045 0.645 -0.045 0.923 0 0.456 0.109 0.779 0.327 0.968s0.575 0.282 1.071 0.282c0.477 0 0.887 -0.099 1.236 -0.298 0.347 -0.199 0.59 -0.298 0.729 -0.298q0.238 0 0.238 0.298c0 0.199 -0.104 0.477 -0.312 0.834s-0.516 0.72 -0.923 1.086c-0.408 0.367 -0.907 0.674 -1.503 0.923 -0.593 0.246 -1.267 0.372 -2.022 0.372"/><path d="M260.577 152.178q-2.262 0 -3.555 -0.7c-0.863 -0.467 -1.295 -1.096 -1.295 -1.889 0 -0.357 0.055 -0.69 0.164 -0.996 0.108 -0.307 0.272 -0.461 0.491 -0.461 0.079 0 0.168 0.02 0.268 0.059 0.099 0.04 0.288 0.148 0.566 0.327 0.396 0.258 0.838 0.495 1.325 0.714 0.485 0.219 0.982 0.392 1.488 0.521s0.976 0.193 1.414 0.193c0.635 0 1.096 -0.154 1.384 -0.461q0.432 -0.46 0.432 -1.236c0 -0.377 -0.114 -0.69 -0.343 -0.937s-0.59 -0.53 -1.086 -0.848l-1.845 -1.191c-0.773 -0.495 -1.424 -1.027 -1.95 -1.593s-0.789 -1.305 -0.789 -2.216c0 -1.289 0.495 -2.336 1.488 -3.139s2.39 -1.205 4.196 -1.205c1.269 0 2.202 0.13 2.796 0.387s0.893 0.704 0.893 1.339c0 0.495 -0.075 0.913 -0.223 1.25s-0.353 0.505 -0.611 0.505c-0.079 0 -0.184 -0.02 -0.312 -0.059 -0.13 -0.039 -0.243 -0.089 -0.343 -0.148 -0.158 -0.099 -0.408 -0.238 -0.744 -0.416s-0.714 -0.343 -1.13 -0.491 -0.852 -0.223 -1.309 -0.223 -0.828 0.134 -1.116 0.402 -0.432 0.631 -0.432 1.086c0 0.377 0.12 0.694 0.357 0.952s0.635 0.526 1.191 0.804l1.934 0.893c0.814 0.377 1.473 0.818 1.979 1.323s0.759 1.254 0.759 2.246c0 1.171 -0.282 2.143 -0.848 2.916s-1.309 1.349 -2.232 1.727c-0.922 0.376 -1.909 0.566 -2.961 0.566"/></g></g><g><g><g><path class="st0" points="271,977.5 269.99,978.26 269.99,976.7 				" d="M39.024 140.76L38.879 140.869L38.879 140.645Z"/><path class="st0" d="M53.893 152.376c-0.003 0.003 -0.003 0.003 -0.003 0.004l-0.984 -0.773z"/></g><path class="st1" points="366.2,1051.88 341.77,1032.79 341.83,1032.71 			" d="M52.733 151.471L49.215 148.722L49.224 148.71Z"/><path class="st1" d="M53.893 152.376c-0.003 0.003 -0.003 0.003 -0.003 0.004l-0.984 -0.773z"/><path class="st2" points="366.2,1051.88 341.77,1032.79 341.83,1032.71 			" d="M52.733 151.471L49.215 148.722L49.224 148.71Z"/><path class="st2" d="M53.893 152.376c-0.003 0.003 -0.003 0.003 -0.003 0.004l-0.984 -0.773z"/><path class="st3" points="366.2,1051.88 341.77,1032.79 341.83,1032.71 			" d="M52.733 151.471L49.215 148.722L49.224 148.71Z"/><path class="st3" d="M53.893 152.376c-0.003 0.003 -0.003 0.003 -0.003 0.004l-0.984 -0.773z"/><path class="st4" points="271,977.5 269.99,978.26 269.99,976.7 			" d="M39.024 140.76L38.879 140.869L38.879 140.645Z"/><path class="st4" points="366.2,1051.88 341.77,1032.79 341.83,1032.71 			" d="M52.733 151.471L49.215 148.722L49.224 148.71Z"/><path class="st4" d="M53.893 152.376c-0.003 0.003 -0.003 0.003 -0.003 0.004l-0.984 -0.773z"/><path class="st5" d="M73.211 124.163v9.573L54.274 152.673l-0.379 -0.298 -0.985 -0.769 -0.176 -0.137 -3.509 -2.759 -0.009 0.012 -5.897 -4.607 -1.371 -1.073L39.024 140.76l-0.145 -0.115 -1.922 -1.503 -16.042 16.042 -0.603 0.603V124.163c0 -3.652 2.961 -6.612 6.612 -6.612h39.675c0.904 0 1.765 0.181 2.55 0.511 0.053 0.022 0.107 0.045 0.157 0.068 2.301 1.032 3.905 3.347 3.905 6.034"/><path class="st6" d="M73.211 133.736v30.103c0 1.1 -0.269 2.136 -0.744 3.048 -1.1 2.118 -3.315 3.564 -5.868 3.564H26.924c-2.688 0 -5.001 -1.604 -6.034 -3.908a6.545 6.545 0 0 1 -0.58 -2.704v-8.05l0.603 -0.603 16.042 -16.042 1.922 1.503v0.225l0.145 -0.111 2.923 2.281 1.371 1.073 5.897 4.607 3.518 2.749 0.176 0.137 0.984 0.773c0 -0.003 0 -0.003 0.003 -0.004l0.379 0.298z"/><path class="st7" points="271,977.5 269.99,978.26 269.99,976.7 			" d="M39.024 140.76L38.879 140.869L38.879 140.645Z"/><path class="st7" d="M53.893 152.376c-0.003 0.003 -0.003 0.003 -0.003 0.004l-0.984 -0.773z"/></g><path class="st8" d="M60.641 153.282c0.753 -1.891 1.128 -4.012 1.128 -6.358v-7.027c0 -3.024 -0.615 -5.664 -1.846 -7.913 -1.234 -2.252 -2.968 -3.996 -5.198 -5.237 -2.232 -1.243 -4.844 -1.865 -7.829 -1.865 -2.989 0 -5.6 0.622 -7.831 1.865 -2.232 1.241 -3.966 2.985 -5.197 5.237 -1.233 2.249 -1.85 4.889 -1.85 7.913v7.027c0 3.007 0.618 5.639 1.85 7.9 1.23 2.261 2.964 4.012 5.197 5.255 2.231 1.241 4.841 1.86 7.831 1.86 2.985 0 5.596 -0.619 7.829 -1.86 0.742 -0.418 1.43 -0.888 2.065 -1.416l3.515 2.671c0.626 0.477 1.518 0.361 2.004 -0.258l2.311 -2.945c0.497 -0.634 0.379 -1.551 -0.264 -2.038zm-6.827 -6.163c0 0.327 -0.014 0.645 -0.045 0.953l-2.863 -2.17c-0.625 -0.474 -1.515 -0.36 -2 0.255l-2.307 2.922c-0.5 0.632 -0.383 1.551 0.259 2.039l3.267 2.483c-0.936 0.445 -2.012 0.665 -3.23 0.665 -2.095 0 -3.77 -0.654 -5.028 -1.961 -1.263 -1.308 -1.891 -3.036 -1.891 -5.184v-7.419c0 -2.166 0.628 -3.897 1.891 -5.194 1.259 -1.299 2.933 -1.948 5.028 -1.948 2.091 0 3.766 0.649 5.028 1.948 1.259 1.297 1.891 3.028 1.891 5.194v7.417z"/><path class="st9" d="M67.065 172.08h-40.608c-4.294 0 -7.776 -3.482 -7.776 -7.776V123.696c0 -4.294 3.482 -7.776 7.776 -7.776h40.608c4.294 0 7.776 3.482 7.776 7.776v40.608c0 4.294 -3.482 7.776 -7.776 7.776z"/></g></g></svg>